<svg version="1.1" xmlns="http://www.w3.org/2000/svg" xmlns:xlink="http://www.w3.org/1999/xlink" width="33.04794" height="32.85558" viewBox="0,0,33.04794,32.85558"><defs><linearGradient x1="249.95564" y1="179.73869" x2="254.9579" y2="179.73869" gradientUnits="userSpaceOnUse" id="color-1"><stop offset="0" stop-color="#5d5d5d"/><stop offset="1" stop-color="#808080"/></linearGradient><linearGradient x1="229.16228" y1="180.09425" x2="224.40999" y2="180.09425" gradientUnits="userSpaceOnUse" id="color-2"><stop offset="0" stop-color="#5d5d5d"/><stop offset="1" stop-color="#808080"/></linearGradient><linearGradient x1="240.26251" y1="189.76365" x2="240.26251" y2="194.64094" gradientUnits="userSpaceOnUse" id="color-3"><stop offset="0" stop-color="#5d5d5d"/><stop offset="1" stop-color="#808080"/></linearGradient><linearGradient x1="240.01613" y1="170.16265" x2="240.01613" y2="164.28536" gradientUnits="userSpaceOnUse" id="color-4"><stop offset="0" stop-color="#5d5d5d"/><stop offset="1" stop-color="#808080"/></linearGradient><linearGradient x1="246.70114" y1="173.06273" x2="250.55572" y2="169.20815" gradientUnits="userSpaceOnUse" id="color-5"><stop offset="0" stop-color="#5d5d5d"/><stop offset="1" stop-color="#808080"/></linearGradient><linearGradient x1="233.12167" y1="186.96827" x2="229.20405" y2="190.88588" gradientUnits="userSpaceOnUse" id="color-6"><stop offset="0" stop-color="#5d5d5d"/><stop offset="1" stop-color="#808080"/></linearGradient><linearGradient x1="246.84633" y1="186.04948" x2="250.95303" y2="190.15617" gradientUnits="userSpaceOnUse" id="color-7"><stop offset="0" stop-color="#5d5d5d"/><stop offset="1" stop-color="#808080"/></linearGradient><linearGradient x1="233.55689" y1="173.20037" x2="229.19809" y2="169.28276" gradientUnits="userSpaceOnUse" id="color-8"><stop offset="0" stop-color="#5d5d5d"/><stop offset="1" stop-color="#808080"/></linearGradient><radialGradient cx="240.00002" cy="180" r="9.76852" gradientUnits="userSpaceOnUse" id="color-9"><stop offset="0" stop-color="#00d52f"/><stop offset="1" stop-color="#000000"/></radialGradient></defs><g transform="translate(-223.15998,-163.03536)"><g data-paper-data="{&quot;isPaintingLayer&quot;:true}" fill-rule="nonzero" stroke="#000000" stroke-width="2.5" stroke-linecap="butt" stroke-linejoin="miter" stroke-miterlimit="10" stroke-dasharray="" stroke-dashoffset="0" style="mix-blend-mode: normal"><path d="M249.95564,183.1201v-6.76282h5.00229v6.76282z" fill="url(#color-1)"/><path d="M224.40999,183.47566v-6.76282h4.75229v6.76282z" data-paper-data="{&quot;index&quot;:null}" fill="url(#color-2)"/><path d="M236.8811,189.76365h6.76282v4.87729h-6.76282z" fill="url(#color-3)"/><path d="M243.39754,170.16265h-6.76282v-5.87729h6.76282z" data-paper-data="{&quot;index&quot;:null}" fill="url(#color-4)"/><path d="M248.59636,174.95795l-3.79043,-3.79043l3.85459,-3.85459l3.79043,3.79043z" fill="url(#color-5)"/><path d="M231.13025,192.81208l-3.85241,-3.85241l3.91761,-3.91761l3.85241,3.85241z" data-paper-data="{&quot;index&quot;:null}" fill="url(#color-6)"/><path d="M244.82718,188.06865l4.03833,-4.03833l4.10669,4.10669l-4.03833,4.03833z" fill="url(#color-7)"/><path d="M235.7,171.27417l-4.28624,3.85241l-4.35878,-3.91761l4.28624,-3.85241z" data-paper-data="{&quot;index&quot;:null}" fill="url(#color-8)"/><path d="M249.76854,180c0,5.39501 -4.37352,9.76852 -9.76852,9.76852c-5.39501,0 -9.76852,-4.37352 -9.76852,-9.76852c0,-5.39501 4.37352,-9.76852 9.76852,-9.76852c5.39501,0 9.76852,4.37352 9.76852,9.76852z" fill="url(#color-9)"/></g></g></svg>