<svg version="1.1" xmlns="http://www.w3.org/2000/svg" xmlns:xlink="http://www.w3.org/1999/xlink" width="221.14972" height="41.03604" viewBox="0,0,221.14972,41.03604"><defs><linearGradient x1="333.94624" y1="180.44118" x2="369.98236" y2="180.44118" gradientUnits="userSpaceOnUse" id="color-1"><stop offset="0" stop-color="#ffffff"/><stop offset="1" stop-color="#dfdfdf"/></linearGradient><linearGradient x1="347.5286" y1="180.70635" x2="362.87644" y2="180.70635" gradientUnits="userSpaceOnUse" id="color-2"><stop offset="0" stop-color="#505050"/><stop offset="1" stop-color="#7a7a7a"/></linearGradient><linearGradient x1="341.1793" y1="180.49895" x2="348.42487" y2="180.49895" gradientUnits="userSpaceOnUse" id="color-3"><stop offset="0" stop-color="#7a7a7a"/><stop offset="1" stop-color="#c0c0c0"/></linearGradient></defs><g transform="translate(-151.33256,-159.92316)"><g data-paper-data="{&quot;isPaintingLayer&quot;:true}" fill-rule="nonzero" stroke-linejoin="miter" stroke-miterlimit="10" stroke-dasharray="" stroke-dashoffset="0" style="mix-blend-mode: normal"><path d="M153.83256,193.91818v-28h172.33333v28z" fill="none" stroke="#000000" stroke-width="5" stroke-linecap="butt"/><path d="M333.94624,180.44118c0,-9.95108 8.06694,-18.01802 18.01802,-18.01802c9.95108,0 18.01802,8.06694 18.01802,18.01802c0,9.95108 -8.06694,18.01802 -18.01802,18.01802c-9.95108,0 -18.01802,-8.06694 -18.01802,-18.01802z" fill="url(#color-1)" stroke="#000000" stroke-width="5" stroke-linecap="butt"/><path d="M291.62926,194.01491v-28.2h34.19285v28.2z" fill="#ff0000" stroke="#000000" stroke-width="5" stroke-linecap="butt"/><path d="M257.2118,193.98542v-28.2h34.19284v28.2z" fill="#ff8f00" stroke="#000000" stroke-width="5" stroke-linecap="butt"/><path d="M222.70491,194.21458v-28.2h34.19284v28.2z" fill="#fff500" stroke="#000000" stroke-width="5" stroke-linecap="butt"/><path d="M188.2874,194.18509v-28.2h34.19284v28.2z" fill="#8eff00" stroke="#000000" stroke-width="5" stroke-linecap="butt"/><path d="M154.17792,194.20256v-28.2h34.19284v28.2z" fill="#0000ff" stroke="#000000" stroke-width="5" stroke-linecap="butt"/><g><path d="M347.5286,185.26922v-9.12575h15.34785v9.12575z" fill="url(#color-2)" stroke="#000000" stroke-width="1" stroke-linecap="butt"/><g fill="none" stroke="#05ff00" stroke-width="2" stroke-linecap="round"><path d="M347.3212,180.81803h7.67392"/><path d="M352.92108,178.0101l2.69624,2.69624l-2.79995,2.79995"/></g><path d="M348.42487,187.57984h-7.24557v-14.16179h7.24557z" fill="url(#color-3)" stroke="#000000" stroke-width="1" stroke-linecap="butt"/></g></g></g></svg>