<svg version="1.1" xmlns="http://www.w3.org/2000/svg" xmlns:xlink="http://www.w3.org/1999/xlink" width="238.08594" height="41.03604" viewBox="0,0,238.08594,41.03604"><g transform="translate(-141.84083,-159.92316)"><g data-paper-data="{&quot;isPaintingLayer&quot;:true}" fill-rule="nonzero" stroke-linecap="butt" stroke-linejoin="miter" stroke-miterlimit="10" stroke-dasharray="" stroke-dashoffset="0" style="mix-blend-mode: normal"><path d="M153.83256,193.91818v-28h172.33333v28z" fill="none" stroke="#000000" stroke-width="5"/><path d="M333.94623,180.44118c0,-9.95108 8.06694,-18.01802 18.01802,-18.01802c9.95108,0 18.01802,8.06694 18.01802,18.01802c0,9.95108 -8.06694,18.01802 -18.01802,18.01802c-9.95108,0 -18.01802,-8.06694 -18.01802,-18.01802z" fill="none" stroke="#000000" stroke-width="5"/><path d="M291.62924,194.01491v-28.2h34.19285v28.2z" fill="none" stroke="#000000" stroke-width="5"/><path d="M257.21176,193.98542v-28.2h34.19284v28.2z" fill="none" stroke="#000000" stroke-width="5"/><path d="M222.70485,194.21458v-28.2h34.19284v28.2z" fill="none" stroke="#000000" stroke-width="5"/><path d="M188.28736,194.18509v-28.2h34.19284v28.2z" fill="none" stroke="#000000" stroke-width="5"/><path d="M154.17791,194.20256v-28.2h34.19284v28.2z" fill="none" stroke="#000000" stroke-width="5"/><text transform="translate(142.34084,187.1764) scale(0.5,0.5)" font-size="40" xml:space="preserve" fill="#ff0000" fill-rule="nonzero" stroke="#ff0000" stroke-width="2" stroke-linecap="butt" stroke-linejoin="miter" stroke-miterlimit="10" stroke-dasharray="" stroke-dashoffset="0" font-family="Sans Serif" font-weight="normal" text-anchor="start" style="mix-blend-mode: normal"><tspan x="0" dy="0">YOU NEED TO BUY TECH!</tspan></text></g></g></svg>