<svg version="1.1" xmlns="http://www.w3.org/2000/svg" xmlns:xlink="http://www.w3.org/1999/xlink" width="41.03603" height="41.03603" viewBox="0,0,41.03603,41.03603"><defs><linearGradient x1="221.98198" y1="180.00001" x2="258.01802" y2="180.00001" gradientUnits="userSpaceOnUse" id="color-1"><stop offset="0" stop-color="#ffffff"/><stop offset="1" stop-color="#dfdfdf"/></linearGradient></defs><g transform="translate(-219.48198,-159.48198)"><g data-paper-data="{&quot;isPaintingLayer&quot;:true}" fill-rule="nonzero" stroke="#ff0000" stroke-linejoin="miter" stroke-miterlimit="10" stroke-dasharray="" stroke-dashoffset="0" style="mix-blend-mode: normal"><path d="M221.98198,180c0,-9.95108 8.06694,-18.01801 18.01801,-18.01801c9.95108,0 18.01802,8.06694 18.01802,18.01801c0,9.95108 -8.06695,18.01802 -18.01802,18.01802c-9.95108,0 -18.01801,-8.06695 -18.01801,-18.01802z" fill="url(#color-1)" stroke-width="5" stroke-linecap="butt"/><g fill="none" stroke-width="2.5"><path d="M244.73259,179.12032c0,-1.84095 1.49238,-3.33334 3.33333,-3.33334c1.84095,0 3.33334,1.49239 3.33334,3.33334c0,1.84095 -1.49239,3.33333 -3.33334,3.33333c-1.84095,0 -3.33333,-1.49239 -3.33333,-3.33333z" stroke-linecap="butt"/><g stroke-linecap="round"><path d="M240.06593,195.54812v-16.22222h4.66666"/><path d="M240.06593,179.3259h-4.22222"/></g><path d="M228.06592,179.12032c0,-1.84095 1.49238,-3.33334 3.33333,-3.33334c1.84095,0 3.33334,1.49239 3.33334,3.33334c0,1.84095 -1.49239,3.33333 -3.33334,3.33333c-1.84095,0 -3.33333,-1.49239 -3.33333,-3.33333z" stroke-linecap="butt"/></g></g></g></svg>