<svg version="1.1" xmlns="http://www.w3.org/2000/svg" xmlns:xlink="http://www.w3.org/1999/xlink" width="52.23808" height="52.23808" viewBox="0,0,52.23808,52.23808"><defs><radialGradient cx="240.03686" cy="180" r="9.76852" gradientUnits="userSpaceOnUse" id="color-1"><stop offset="0" stop-color="#ff0000"/><stop offset="1" stop-color="#000000"/></radialGradient></defs><g transform="translate(-213.88096,-153.88096)"><g data-paper-data="{&quot;isPaintingLayer&quot;:true}" fill-rule="nonzero" stroke="#000000" stroke-linejoin="miter" stroke-miterlimit="10" stroke-dasharray="" stroke-dashoffset="0" style="mix-blend-mode: normal"><path d="M214.88096,180c0,-13.87287 11.24618,-25.11904 25.11904,-25.11904c13.87287,0 25.11904,11.24618 25.11904,25.11904c0,13.87287 -11.24618,25.11904 -25.11904,25.11904c-13.87287,0 -25.11904,-11.24618 -25.11904,-25.11904z" fill="#ffffff" stroke-width="2" stroke-linecap="butt"/><path d="M250.34144,169.65857l-20.68287,20.68287" data-paper-data="{&quot;index&quot;:null}" fill="none" stroke-width="5" stroke-linecap="round"/><path d="M229.65856,169.65856l20.68287,20.68287" fill="none" stroke-width="5" stroke-linecap="round"/><path d="M240,165.375v29.25" fill="none" stroke-width="5" stroke-linecap="round"/><path d="M225.375,180h29.25" fill="none" stroke-width="5" stroke-linecap="round"/><path d="M240.03686,170.23148c5.39501,0 9.76852,4.37352 9.76852,9.76852c0,5.39501 -4.37352,9.76852 -9.76852,9.76852c-5.39501,0 -9.76852,-4.37352 -9.76852,-9.76852c0,-5.39501 4.37352,-9.76852 9.76852,-9.76852z" fill="url(#color-1)" stroke-width="2.5" stroke-linecap="butt"/></g></g></svg>