<svg version="1.1" xmlns="http://www.w3.org/2000/svg" xmlns:xlink="http://www.w3.org/1999/xlink" width="221.2497" height="41.48603" viewBox="0,0,221.2497,41.48603"><defs><linearGradient x1="162.80076" y1="165.9" x2="162.80076" y2="194.1" gradientUnits="userSpaceOnUse" id="color-1"><stop offset="0" stop-color="#00ffff"/><stop offset="1" stop-color="#33ff00"/></linearGradient><linearGradient x1="333.94624" y1="180.44119" x2="369.98227" y2="180.44119" gradientUnits="userSpaceOnUse" id="color-2"><stop offset="0" stop-color="#ffffff"/><stop offset="1" stop-color="#dfdfdf"/></linearGradient></defs><g transform="translate(-151.33257,-159.47317)"><g data-paper-data="{&quot;isPaintingLayer&quot;:true}" fill-rule="nonzero" stroke-linejoin="miter" stroke-miterlimit="10" stroke-dasharray="" stroke-dashoffset="0" style="mix-blend-mode: normal"><path d="M153.83257,193.91818v-28h172.33333v28z" fill="none" stroke="#000000" stroke-width="5" stroke-linecap="butt"/><path d="M154.30076,194.1v-28.2h17v28.2z" fill="url(#color-1)" stroke="#000000" stroke-width="5" stroke-linecap="butt"/><path d="M171.50076,194.1v-28.2h17v28.2z" fill="#e100ff" stroke="#000000" stroke-width="5" stroke-linecap="butt"/><path d="M188.50076,194.1v-28.2h17v28.2z" fill="#1500ff" stroke="#000000" stroke-width="5" stroke-linecap="butt"/><path d="M205.70076,194.1v-28.2h17v28.2z" fill="#007aff" stroke="#000000" stroke-width="5" stroke-linecap="butt"/><path d="M223.10076,194.1v-28.2h17v28.2z" fill="#2dad00" stroke="#000000" stroke-width="5" stroke-linecap="butt"/><path d="M240.30076,194.1v-28.2h17v28.2z" fill="#fff500" stroke="#000000" stroke-width="5" stroke-linecap="butt"/><path d="M257.30076,194.1v-28.2h17v28.2z" fill="#ff5200" stroke="#000000" stroke-width="5" stroke-linecap="butt"/><path d="M274.50076,194.1v-28.2h17v28.2z" fill="#ff0000" stroke="#000000" stroke-width="5" stroke-linecap="butt"/><path d="M291.96743,194.1v-28.2h17v28.2z" fill="#474747" stroke="#000000" stroke-width="5" stroke-linecap="butt"/><path d="M309.16743,194.1v-28.2h17v28.2z" fill="#000000" stroke="#000000" stroke-width="5" stroke-linecap="butt"/><path d="M333.94624,180.44118c0,-9.95108 8.06694,-18.01801 18.01801,-18.01801c9.95108,0 18.01802,8.06694 18.01802,18.01801c0,9.95108 -8.06695,18.01802 -18.01802,18.01802c-9.95108,0 -18.01801,-8.06695 -18.01801,-18.01802z" fill="url(#color-2)" stroke="#23ff00" stroke-width="5" stroke-linecap="butt"/><g fill="none" stroke="#00ffc7" stroke-width="2"><path d="M356.94395,176.37941c0,-0.94634 0.76715,-1.71349 1.71349,-1.71349c0.94633,0 1.71349,0.76715 1.71349,1.71349c0,0.94634 -0.76715,1.7135 -1.71349,1.7135c-0.94633,0 -1.71349,-0.76716 -1.71349,-1.7135z" stroke-linecap="butt"/><path d="M348.94488,182.07199l4.44018,0l0,5.40928l-7.54698,0" data-paper-data="{&quot;index&quot;:null}" stroke-linecap="round"/><path d="M353.56752,192.20116v-6.12198h4.54397" stroke-linecap="round"/><path d="M345.47136,182.23284c0,-0.94634 0.76716,-1.71349 1.7135,-1.71349c0.94633,0 1.7135,0.76715 1.7135,1.71349c0,0.94634 -0.76716,1.7135 -1.7135,1.7135c-0.94633,0 -1.7135,-0.76716 -1.7135,-1.7135z" stroke-linecap="butt"/><path d="M358.62642,178.86104v2.70862h-5.40928v-4.60384" data-paper-data="{&quot;index&quot;:null}" stroke-linecap="round"/><path d="M359.94143,184.28181c0.94634,0 1.71349,0.76716 1.71349,1.71349c0,0.94634 -0.76716,1.7135 -1.71349,1.7135c-0.94634,0 -1.71349,-0.76716 -1.71349,-1.7135c0,-0.94634 0.76716,-1.71349 1.71349,-1.71349z" data-paper-data="{&quot;index&quot;:null}" stroke-linecap="butt"/><path d="M342.44481,187.28398c0,-0.94634 0.76715,-1.7135 1.71349,-1.7135c0.94633,0 1.7135,0.76716 1.7135,1.7135c0,0.94634 -0.76716,1.71349 -1.7135,1.71349c-0.94633,0 -1.71349,-0.76715 -1.71349,-1.71349z" stroke-linecap="butt"/><path d="M345.85304,172.83395c0,-0.94634 0.76715,-1.71349 1.71349,-1.71349c0.94633,0 1.71349,0.76715 1.71349,1.71349c0,0.94634 -0.76715,1.7135 -1.71349,1.7135c-0.94633,0 -1.71349,-0.76716 -1.71349,-1.7135z" stroke-linecap="butt"/><path d="M353.17187,172.784v4.60384h-5.40928v-2.70862" data-paper-data="{&quot;index&quot;:null}" stroke-linecap="round"/><path d="M351.48941,171.01577c0,-0.94634 0.76715,-1.71349 1.71349,-1.71349c0.94633,0 1.71349,0.76715 1.71349,1.71349c0,0.94634 -0.76715,1.71349 -1.71349,1.71349c-0.94633,0 -1.71349,-0.76716 -1.71349,-1.71349z" stroke-linecap="butt"/></g><path d="M353.59578,192.65337v3" fill="none" stroke="#00ffc7" stroke-width="2" stroke-linecap="round"/><path d="M334.04624,179.99118c0,-9.95108 8.06694,-18.01801 18.01801,-18.01801c9.95108,0 18.01802,8.06694 18.01802,18.01801c0,9.95108 -8.06695,18.01802 -18.01802,18.01802c-9.95108,0 -18.01801,-8.06695 -18.01801,-18.01802z" fill="none" stroke="#23ff00" stroke-width="5" stroke-linecap="butt"/></g></g></svg>