<svg version="1.1" xmlns="http://www.w3.org/2000/svg" xmlns:xlink="http://www.w3.org/1999/xlink" width="221.14972" height="41.03604" viewBox="0,0,221.14972,41.03604"><defs><linearGradient x1="333.94624" y1="180.44118" x2="369.9823" y2="180.44118" gradientUnits="userSpaceOnUse" id="color-1"><stop offset="0" stop-color="#ffffff"/><stop offset="1" stop-color="#dfdfdf"/></linearGradient><linearGradient x1="352.32361" y1="182.05516" x2="352.32361" y2="189.84201" gradientUnits="userSpaceOnUse" id="color-2"><stop offset="0" stop-color="#ffffff"/><stop offset="1" stop-color="#e6e6e6"/></linearGradient><linearGradient x1="343.19999" y1="181.8602" x2="343.19999" y2="190.1231" gradientUnits="userSpaceOnUse" id="color-3"><stop offset="0" stop-color="#2b2b2b"/><stop offset="1" stop-color="#000000"/></linearGradient><linearGradient x1="360.54778" y1="181.82334" x2="360.54778" y2="190.08625" gradientUnits="userSpaceOnUse" id="color-4"><stop offset="0" stop-color="#2b2b2b"/><stop offset="1" stop-color="#000000"/></linearGradient></defs><g transform="translate(-151.33256,-159.92316)"><g data-paper-data="{&quot;isPaintingLayer&quot;:true}" fill-rule="nonzero" stroke-linejoin="miter" stroke-miterlimit="10" stroke-dasharray="" stroke-dashoffset="0" style="mix-blend-mode: normal"><path d="M153.83256,193.91818v-28h172.33333v28z" fill="none" stroke="#000000" stroke-width="5" stroke-linecap="butt"/><path d="M333.94624,180.44118c0,-9.95108 8.06694,-18.01802 18.01802,-18.01802c9.95108,0 18.01802,8.06694 18.01802,18.01802c0,9.95108 -8.06694,18.01802 -18.01802,18.01802c-9.95108,0 -18.01802,-8.06694 -18.01802,-18.01802z" fill="url(#color-1)" stroke="#000000" stroke-width="5" stroke-linecap="butt"/><path d="M291.62925,194.01491v-28.2h34.19285v28.2z" fill="#ff0000" stroke="#000000" stroke-width="5" stroke-linecap="butt"/><path d="M257.21179,193.98542v-28.2h34.19284v28.2z" fill="none" stroke="#000000" stroke-width="5" stroke-linecap="butt"/><path d="M222.70486,194.21458v-28.2h34.19284v28.2z" fill="none" stroke="#000000" stroke-width="5" stroke-linecap="butt"/><path d="M188.2874,194.18509v-28.2h34.19284v28.2z" fill="none" stroke="#000000" stroke-width="5" stroke-linecap="butt"/><path d="M154.17792,194.20256v-28.2h34.19284v28.2z" fill="none" stroke="#000000" stroke-width="5" stroke-linecap="butt"/><g><g stroke="#000000" stroke-linecap="butt"><path d="M344.27719,189.84201v-7.78685h16.09282v7.78685z" fill="url(#color-2)" stroke-width="2"/><path d="M339.06854,185.99165c0,-2.28173 1.84972,-4.13146 4.13146,-4.13146c2.28174,0 4.13145,1.84972 4.13145,4.13146c0,2.28173 -1.84971,4.13145 -4.13145,4.13145c-2.28174,0 -4.13146,-1.84972 -4.13146,-4.13145z" fill="url(#color-3)" stroke-width="1.5"/><path d="M356.41633,185.9548c0,-2.28173 1.84972,-4.13146 4.13146,-4.13146c2.28174,0 4.13145,1.84972 4.13145,4.13146c0,2.28173 -1.84971,4.13145 -4.13145,4.13145c-2.28174,0 -4.13146,-1.84972 -4.13146,-4.13145z" fill="url(#color-4)" stroke-width="1.5"/></g><g fill="none" stroke="#00ff06" stroke-width="2.5" stroke-linecap="round"><path d="M356.91488,169.89583l4.0611,4.0611l-4.0611,4.0611"/><path d="M359.89302,173.95693h-17.32736"/></g></g></g></g></svg>