<svg version="1.1" xmlns="http://www.w3.org/2000/svg" xmlns:xlink="http://www.w3.org/1999/xlink" width="52.23808" height="52.23808" viewBox="0,0,52.23808,52.23808"><defs><radialGradient cx="240.00002" cy="180.00002" r="14.66944" gradientUnits="userSpaceOnUse" id="color-1"><stop offset="0" stop-color="#ff0000"/><stop offset="1" stop-color="#000000"/></radialGradient><radialGradient cx="240" cy="180" r="14.66944" gradientUnits="userSpaceOnUse" id="color-2"><stop offset="0" stop-color="#ff0000"/><stop offset="1" stop-color="#000000"/></radialGradient><radialGradient cx="240" cy="180" r="20.74573" gradientUnits="userSpaceOnUse" id="color-3"><stop offset="0" stop-color="#ff0000"/><stop offset="1" stop-color="#000000"/></radialGradient><radialGradient cx="240" cy="180" r="20.74573" gradientUnits="userSpaceOnUse" id="color-4"><stop offset="0" stop-color="#ff0000"/><stop offset="1" stop-color="#000000"/></radialGradient><radialGradient cx="240" cy="180" r="15.84117" gradientUnits="userSpaceOnUse" id="color-5"><stop offset="0" stop-color="#000000" stop-opacity="0"/><stop offset="1" stop-color="#000000"/></radialGradient><radialGradient cx="240" cy="180" r="8.81109" gradientUnits="userSpaceOnUse" id="color-6"><stop offset="0" stop-color="#ff0000"/><stop offset="1" stop-color="#000000"/></radialGradient></defs><g transform="translate(-213.88096,-153.88096)"><g data-paper-data="{&quot;isPaintingLayer&quot;:true}" fill-rule="nonzero" stroke-linejoin="miter" stroke-miterlimit="10" stroke-dasharray="" stroke-dashoffset="0" style="mix-blend-mode: normal"><path d="M214.88096,180c0,-13.87287 11.24618,-25.11904 25.11904,-25.11904c13.87287,0 25.11904,11.24618 25.11904,25.11904c0,13.87287 -11.24618,25.11904 -25.11904,25.11904c-13.87287,0 -25.11904,-11.24618 -25.11904,-25.11904z" fill="#ffffff" stroke="#000000" stroke-width="2" stroke-linecap="butt"/><path d="M225.33056,194.66945l29.33889,-29.33889" data-paper-data="{&quot;index&quot;:null}" fill="none" stroke="url(#color-1)" stroke-width="5" stroke-linecap="round"/><path d="M225.33055,165.33055l29.33889,29.33889" fill="none" stroke="url(#color-2)" stroke-width="5" stroke-linecap="round"/><path d="M240,200.74573v-41.49145" fill="none" stroke="url(#color-3)" stroke-width="5" stroke-linecap="round"/><path d="M219.25427,180h41.49145" fill="none" stroke="url(#color-4)" stroke-width="5" stroke-linecap="round"/><path d="M224.15883,180c0,-8.74883 7.09233,-15.84117 15.84117,-15.84117c8.74883,0 15.84117,7.09233 15.84117,15.84117c0,8.74883 -7.09233,15.84117 -15.84117,15.84117c-8.74883,0 -15.84117,-7.09233 -15.84117,-15.84117z" fill="url(#color-5)" stroke="#000000" stroke-width="2.5" stroke-linecap="butt"/><path d="M240,171.18891c4.86624,0 8.81109,3.94486 8.81109,8.81109c0,4.86624 -3.94486,8.81109 -8.81109,8.81109c-4.86624,0 -8.81109,-3.94486 -8.81109,-8.81109c0,-4.86624 3.94486,-8.81109 8.81109,-8.81109z" fill="url(#color-6)" stroke="#000000" stroke-width="2.5" stroke-linecap="butt"/></g></g></svg>