<svg version="1.1" xmlns="http://www.w3.org/2000/svg" xmlns:xlink="http://www.w3.org/1999/xlink" width="30.69673" height="64.58338" viewBox="0,0,30.69673,64.58338"><defs><linearGradient x1="230.56632" y1="139.326" x2="230.56632" y2="150.7983" gradientUnits="userSpaceOnUse" id="color-1"><stop offset="0" stop-color="#ff0000"/><stop offset="1" stop-color="#d10007"/></linearGradient><linearGradient x1="229.1853" y1="172.62131" x2="229.1853" y2="177.27787" gradientUnits="userSpaceOnUse" id="color-2"><stop offset="0" stop-color="#cacaca"/><stop offset="1" stop-color="#6b6b6b"/></linearGradient><linearGradient x1="229.23065" y1="176.02188" x2="229.23065" y2="183.36492" gradientUnits="userSpaceOnUse" id="color-3"><stop offset="0" stop-color="#cacaca"/><stop offset="1" stop-color="#6b6b6b"/></linearGradient></defs><g transform="translate(-221.85353,-135.42711)"><g data-paper-data="{&quot;isPaintingLayer&quot;:true}" fill-rule="nonzero" stroke-linejoin="miter" stroke-miterlimit="10" stroke-dasharray="" stroke-dashoffset="0" style="mix-blend-mode: normal"><path d="M233.81341,187.61997l-5.85344,8.9726l-3.11353,-3.92552" fill="none" stroke="#2ed500" stroke-width="4" stroke-linecap="round"/><path d="M230.72324,150.7983c0,0 -4.69339,-2.50392 -5.84347,-5.38351c-1.15008,-2.8796 -0.35303,-5.07619 1.34583,-5.87782c0.33984,-0.16036 1.62311,-0.41993 2.41479,0.08555c1.2554,0.80157 2.08285,2.58408 2.08285,2.58408c0,0 0.59185,-1.49205 1.6582,-2.34348c0.80427,-0.64218 2.33698,-0.37249 2.74327,-0.25825c1.51845,0.42692 2.14786,3.56251 1.26414,5.8099c-0.88372,2.2474 -5.6656,5.38351 -5.6656,5.38351z" fill="url(#color-1)" stroke="none" stroke-width="0" stroke-linecap="butt"/><text transform="translate(238.66165,147.66043) scale(0.28491,0.28491)" font-size="40" xml:space="preserve" fill="#000000" fill-rule="nonzero" stroke="none" stroke-width="1" stroke-linecap="butt" stroke-linejoin="miter" stroke-miterlimit="10" stroke-dasharray="" stroke-dashoffset="0" font-family="Sans Serif" font-weight="normal" text-anchor="start" style="mix-blend-mode: normal"><tspan x="0" dy="0">-</tspan></text><text transform="translate(238.64149,162.80619) scale(0.28491,0.28491)" font-size="40" xml:space="preserve" fill="#000000" fill-rule="nonzero" stroke="none" stroke-width="1" stroke-linecap="butt" stroke-linejoin="miter" stroke-miterlimit="10" stroke-dasharray="" stroke-dashoffset="0" font-family="Sans Serif" font-weight="normal" text-anchor="start" style="mix-blend-mode: normal"><tspan x="0" dy="0">-</tspan></text><text transform="translate(238.41639,178.97668) scale(0.28491,0.28491)" font-size="40" xml:space="preserve" fill="#000000" fill-rule="nonzero" stroke="none" stroke-width="1" stroke-linecap="butt" stroke-linejoin="miter" stroke-miterlimit="10" stroke-dasharray="" stroke-dashoffset="0" font-family="Sans Serif" font-weight="normal" text-anchor="start" style="mix-blend-mode: normal"><tspan x="0" dy="0">-</tspan></text><path d="M222.35353,163.56671c0,-1.1872 0.96242,-2.14962 2.14962,-2.14962c1.1872,0 2.14962,0.96242 2.14962,2.14962c0,1.1872 -0.96242,2.14962 -2.14962,2.14962c-1.1872,0 -2.14962,-0.96242 -2.14962,-2.14962z" fill="#fff800" stroke="#000000" stroke-width="1" stroke-linecap="butt"/><path d="M225.01571,166.04699c0,-1.1872 0.96242,-2.14962 2.14962,-2.14962c1.1872,0 2.14962,0.96242 2.14962,2.14962c0,1.1872 -0.96242,2.14962 -2.14962,2.14962c-1.1872,0 -2.14962,-0.96242 -2.14962,-2.14962z" fill="#fff800" stroke="#000000" stroke-width="1" stroke-linecap="butt"/><path d="M223.6762,159.61443c0,-1.1872 0.96242,-2.14962 2.14962,-2.14962c1.1872,0 2.14962,0.96242 2.14962,2.14962c0,1.1872 -0.96242,2.14962 -2.14962,2.14962c-1.1872,0 -2.14962,-0.96242 -2.14962,-2.14962z" fill="#fff800" stroke="#000000" stroke-width="1" stroke-linecap="butt"/><path d="M229.2487,164.27746c0,-1.1872 0.96242,-2.14962 2.14962,-2.14962c1.1872,0 2.14962,0.96242 2.14962,2.14962c0,1.1872 -0.96242,2.14962 -2.14962,2.14962c-1.1872,0 -2.14962,-0.96242 -2.14962,-2.14962z" fill="#fff800" stroke="#000000" stroke-width="1" stroke-linecap="butt"/><path d="M232.82035,161.3009c0,-1.1872 0.96242,-2.14962 2.14962,-2.14962c1.1872,0 2.14962,0.96242 2.14962,2.14962c0,1.1872 -0.96242,2.14962 -2.14962,2.14962c-1.1872,0 -2.14962,-0.96242 -2.14962,-2.14962z" fill="#fff800" stroke="#000000" stroke-width="1" stroke-linecap="butt"/><path d="M229.48,159.9614c0,-1.1872 0.96242,-2.14962 2.14962,-2.14962c1.1872,0 2.14962,0.96242 2.14962,2.14962c0,1.1872 -0.96242,2.14962 -2.14962,2.14962c-1.1872,0 -2.14962,-0.96242 -2.14962,-2.14962z" fill="#fff800" stroke="#000000" stroke-width="1" stroke-linecap="butt"/><path d="M231.5965,157.71242c0,-1.1872 0.96242,-2.14962 2.14962,-2.14962c1.1872,0 2.14962,0.96242 2.14962,2.14962c0,1.1872 -0.96242,2.14962 -2.14962,2.14962c-1.1872,0 -2.14962,-0.96242 -2.14962,-2.14962z" fill="#fff800" stroke="#000000" stroke-width="1" stroke-linecap="butt"/><path d="M227.89237,155.28155c0,-1.1872 0.96242,-2.14962 2.14962,-2.14962c1.1872,0 2.14962,0.96242 2.14962,2.14962c0,1.1872 -0.96242,2.14962 -2.14962,2.14962c-1.1872,0 -2.14962,-0.96242 -2.14962,-2.14962z" fill="#fff800" stroke="#000000" stroke-width="1" stroke-linecap="butt"/><path d="M225.64339,157.03426c0,-1.1872 0.96242,-2.14962 2.14962,-2.14962c1.1872,0 2.14962,0.96242 2.14962,2.14962c0,1.1872 -0.96242,2.14962 -2.14962,2.14962c-1.1872,0 -2.14962,-0.96242 -2.14962,-2.14962z" fill="#fff800" stroke="#000000" stroke-width="1" stroke-linecap="butt"/><path d="M227.2142,161.33349c0,-1.1872 0.96242,-2.14962 2.14962,-2.14962c1.1872,0 2.14962,0.96242 2.14962,2.14962c0,1.1872 -0.96242,2.14962 -2.14962,2.14962c-1.1872,0 -2.14962,-0.96242 -2.14962,-2.14962z" fill="#fff800" stroke="#000000" stroke-width="1" stroke-linecap="butt"/><path d="M225.6928,163.0862c0,-1.1872 0.96242,-2.14962 2.14962,-2.14962c1.1872,0 2.14962,0.96242 2.14962,2.14962c0,1.1872 -0.96242,2.14962 -2.14962,2.14962c-1.1872,0 -2.14962,-0.96242 -2.14962,-2.14962z" fill="#fff800" stroke="#000000" stroke-width="1" stroke-linecap="butt"/><text transform="translate(238.28286,195.71047) scale(0.28491,0.28491)" font-size="40" xml:space="preserve" fill="#000000" fill-rule="nonzero" stroke="none" stroke-width="1" stroke-linecap="butt" stroke-linejoin="miter" stroke-miterlimit="10" stroke-dasharray="" stroke-dashoffset="0" font-family="Sans Serif" font-weight="normal" text-anchor="start" style="mix-blend-mode: normal"><tspan x="0" dy="0">-</tspan></text><path d="M235.09555,174.94959c0,1.28588 -2.64611,2.32828 -5.91026,2.32828c-3.26414,0 -5.91026,-1.04241 -5.91026,-2.32828c0,-1.28588 2.64611,-2.32828 5.91026,-2.32828c3.26414,0 5.91026,1.04241 5.91026,2.32828z" fill="url(#color-2)" stroke="#000000" stroke-width="1" stroke-linecap="butt"/><path d="M225.89935,177.97571l-2.39567,-7.88253l2.91311,-0.88536l2.39567,7.88253z" fill="#00cbcb" stroke="#000000" stroke-width="1" stroke-linecap="butt"/><path d="M228.59583,177.39564l3.04067,-7.65688l2.82972,1.12372l-3.04067,7.65688z" fill="#ffc200" stroke="#000000" stroke-width="1" stroke-linecap="butt"/><path d="M227.63389,177.87265l0.09322,-8.23801l3.04449,0.03445l-0.09322,8.23801z" fill="#ff0000" stroke="#000000" stroke-width="1" stroke-linecap="butt"/><path d="M223.40994,183.36492v-7.34305c0,0 0.81715,0.94356 2.18481,1.29355c1.03486,0.26483 2.53803,-0.03986 3.36724,-0.03986c0.83208,0 2.05902,0.31017 3.19393,0.04927c1.53149,-0.35207 2.89543,-1.30296 2.89543,-1.30296v7.34305c0,0 -0.90786,0.96396 -2.23337,1.37826c-1.25086,0.39097 -2.89325,0.23363 -3.85599,0.23363c-0.77704,0 -2.20958,0.26582 -3.20633,-0.05431c-1.43204,-0.45993 -2.34573,-1.55758 -2.34573,-1.55758z" fill="url(#color-3)" stroke="#000000" stroke-width="1" stroke-linecap="butt"/><text transform="translate(245.35494,181.40579) scale(0.5,0.5)" font-size="40" xml:space="preserve" fill="#000000" fill-rule="nonzero" stroke="none" stroke-width="1" stroke-linecap="butt" stroke-linejoin="miter" stroke-miterlimit="10" stroke-dasharray="" stroke-dashoffset="0" font-family="Sans Serif" font-weight="normal" text-anchor="start" style="mix-blend-mode: normal"><tspan x="0" dy="0">-</tspan></text></g></g></svg>