<svg version="1.1" xmlns="http://www.w3.org/2000/svg" xmlns:xlink="http://www.w3.org/1999/xlink" width="541.88773" height="415.57842" viewBox="0,0,541.88773,415.57842"><defs><linearGradient x1="240" y1="-10.69069" x2="240" y2="370.69069" gradientUnits="userSpaceOnUse" id="color-1"><stop offset="0" stop-color="#ad0000"/><stop offset="1" stop-color="#db0000"/></linearGradient><radialGradient cx="388.5" cy="272.5" r="76.38773" gradientUnits="userSpaceOnUse" id="color-2"><stop offset="0" stop-color="#270000"/><stop offset="1" stop-color="#270000" stop-opacity="0"/></radialGradient><radialGradient cx="223.5" cy="253.5" r="76.38773" gradientUnits="userSpaceOnUse" id="color-3"><stop offset="0" stop-color="#270000"/><stop offset="1" stop-color="#270000" stop-opacity="0"/></radialGradient><radialGradient cx="24.5" cy="131.5" r="76.38773" gradientUnits="userSpaceOnUse" id="color-4"><stop offset="0" stop-color="#270000"/><stop offset="1" stop-color="#270000" stop-opacity="0"/></radialGradient><radialGradient cx="296.5" cy="94.5" r="76.38773" gradientUnits="userSpaceOnUse" id="color-5"><stop offset="0" stop-color="#270000"/><stop offset="1" stop-color="#270000" stop-opacity="0"/></radialGradient><radialGradient cx="51.5" cy="328.5" r="76.38773" gradientUnits="userSpaceOnUse" id="color-6"><stop offset="0" stop-color="#270000"/><stop offset="1" stop-color="#270000" stop-opacity="0"/></radialGradient></defs><g transform="translate(51.88773,10.69069)"><g data-paper-data="{&quot;isPaintingLayer&quot;:true}" fill-rule="nonzero" stroke-linejoin="miter" stroke-miterlimit="10" stroke-dasharray="" stroke-dashoffset="0" style="mix-blend-mode: normal"><path d="M-10,370.69069v-381.38138h500v381.38138z" fill="url(#color-1)" stroke="none" stroke-width="0" stroke-linecap="butt"/><text transform="translate(45.90316,143.4456) scale(1.7038,1.7038)" font-size="40" xml:space="preserve" fill="#000000" fill-rule="nonzero" stroke="#000000" stroke-width="2" stroke-linecap="butt" stroke-linejoin="miter" stroke-miterlimit="10" stroke-dasharray="" stroke-dashoffset="0" font-family="Sans Serif" font-weight="normal" text-anchor="start" style="mix-blend-mode: normal"><tspan x="0" dy="0">GAME OVER</tspan></text><text transform="translate(119.99834,217.58704) scale(0.63225,0.63225)" font-size="40" xml:space="preserve" fill="#ffffff" fill-rule="nonzero" stroke="none" stroke-width="1" stroke-linecap="butt" stroke-linejoin="miter" stroke-miterlimit="10" stroke-dasharray="" stroke-dashoffset="0" font-family="Sans Serif" font-weight="normal" text-anchor="start" style="mix-blend-mode: normal"><tspan x="0" dy="0">(Thanks for playing)</tspan></text><path d="M312.11227,272.5c0,-42.18778 34.19995,-76.38773 76.38773,-76.38773c42.18778,0 76.38773,34.19995 76.38773,76.38773c0,42.18778 -34.19995,76.38773 -76.38773,76.38773c-42.18778,0 -76.38773,-34.19995 -76.38773,-76.38773z" fill="url(#color-2)" stroke="none" stroke-width="0.5" stroke-linecap="butt"/><path d="M147.11227,253.5c0,-42.18778 34.19995,-76.38773 76.38773,-76.38773c42.18778,0 76.38773,34.19995 76.38773,76.38773c0,42.18778 -34.19995,76.38773 -76.38773,76.38773c-42.18778,0 -76.38773,-34.19995 -76.38773,-76.38773z" fill="url(#color-3)" stroke="none" stroke-width="0.5" stroke-linecap="butt"/><path d="M-51.88773,131.5c0,-42.18778 34.19995,-76.38773 76.38773,-76.38773c42.18778,0 76.38773,34.19995 76.38773,76.38773c0,42.18778 -34.19995,76.38773 -76.38773,76.38773c-42.18778,0 -76.38773,-34.19995 -76.38773,-76.38773z" fill="url(#color-4)" stroke="none" stroke-width="0.5" stroke-linecap="butt"/><path d="M220.11227,94.5c0,-42.18778 34.19995,-76.38773 76.38773,-76.38773c42.18778,0 76.38773,34.19995 76.38773,76.38773c0,42.18778 -34.19995,76.38773 -76.38773,76.38773c-42.18778,0 -76.38773,-34.19995 -76.38773,-76.38773z" fill="url(#color-5)" stroke="none" stroke-width="0.5" stroke-linecap="butt"/><path d="M-24.88773,328.5c0,-42.18778 34.19995,-76.38773 76.38773,-76.38773c42.18778,0 76.38773,34.19995 76.38773,76.38773c0,42.18778 -34.19995,76.38773 -76.38773,76.38773c-42.18778,0 -76.38773,-34.19995 -76.38773,-76.38773z" fill="url(#color-6)" stroke="none" stroke-width="0.5" stroke-linecap="butt"/><g fill="none" stroke="#ffffff" stroke-width="5" stroke-linecap="round"><path d="M32.56819,334.37252l-12,19l-10,-19"/><path d="M21.56819,350.37252v-40"/></g><g fill="none" stroke="#ffffff" stroke-width="5" stroke-linecap="round"><path d="M101.56819,333.37252l-12,19l-10,-19"/><path d="M90.56819,309.37252v40"/></g></g></g></svg>