<svg version="1.1" xmlns="http://www.w3.org/2000/svg" xmlns:xlink="http://www.w3.org/1999/xlink" width="37.04794" height="35.85558" viewBox="0,0,37.04794,35.85558"><defs><linearGradient x1="249.95563" y1="179.86369" x2="256.83288" y2="179.86369" gradientUnits="userSpaceOnUse" id="color-1"><stop offset="0" stop-color="#5d5d5d"/><stop offset="1" stop-color="#808080"/></linearGradient><linearGradient x1="229.16227" y1="180.09425" x2="222.28498" y2="180.09425" gradientUnits="userSpaceOnUse" id="color-2"><stop offset="0" stop-color="#5d5d5d"/><stop offset="1" stop-color="#808080"/></linearGradient><linearGradient x1="240.2625" y1="189.76365" x2="240.2625" y2="196.64094" gradientUnits="userSpaceOnUse" id="color-3"><stop offset="0" stop-color="#5d5d5d"/><stop offset="1" stop-color="#808080"/></linearGradient><linearGradient x1="240.01612" y1="170.16265" x2="240.01612" y2="163.28536" gradientUnits="userSpaceOnUse" id="color-4"><stop offset="0" stop-color="#5d5d5d"/><stop offset="1" stop-color="#808080"/></linearGradient><linearGradient x1="247.19694" y1="172.56693" x2="252.05991" y2="167.70396" gradientUnits="userSpaceOnUse" id="color-5"><stop offset="0" stop-color="#5d5d5d"/><stop offset="1" stop-color="#808080"/></linearGradient><linearGradient x1="232.65685" y1="187.43309" x2="227.79386" y2="192.29607" gradientUnits="userSpaceOnUse" id="color-6"><stop offset="0" stop-color="#5d5d5d"/><stop offset="1" stop-color="#808080"/></linearGradient><linearGradient x1="247.34318" y1="186.42134" x2="252.20617" y2="191.28432" gradientUnits="userSpaceOnUse" id="color-7"><stop offset="0" stop-color="#5d5d5d"/><stop offset="1" stop-color="#808080"/></linearGradient><linearGradient x1="233.30898" y1="172.73556" x2="228.44599" y2="167.87258" gradientUnits="userSpaceOnUse" id="color-8"><stop offset="0" stop-color="#5d5d5d"/><stop offset="1" stop-color="#808080"/></linearGradient><radialGradient cx="240.00001" cy="180" r="9.76852" gradientUnits="userSpaceOnUse" id="color-9"><stop offset="0" stop-color="#00d52f"/><stop offset="1" stop-color="#000000"/></radialGradient></defs><g transform="translate(-221.03497,-162.03536)"><g data-paper-data="{&quot;isPaintingLayer&quot;:true}" fill-rule="nonzero" stroke="#000000" stroke-width="2.5" stroke-linecap="butt" stroke-linejoin="miter" stroke-miterlimit="10" stroke-dasharray="" stroke-dashoffset="0" style="mix-blend-mode: normal"><path d="M249.95563,183.2451v-6.76282h6.87729v6.76282z" fill="url(#color-1)"/><path d="M222.28498,183.47566v-6.76282h6.87729v6.76282z" data-paper-data="{&quot;index&quot;:null}" fill="url(#color-2)"/><path d="M236.88109,189.76365h6.76282v6.87729h-6.76282z" fill="url(#color-3)"/><path d="M243.39753,170.16265h-6.76282v-6.87729h6.76282z" data-paper-data="{&quot;index&quot;:null}" fill="url(#color-4)"/><path d="M249.58796,174.95795l-4.78204,-4.78204l4.86298,-4.86298l4.78204,4.78204z" fill="url(#color-5)"/><path d="M230.18488,194.68708l-4.78204,-4.78204l4.86298,-4.86298l4.78204,4.78204z" data-paper-data="{&quot;index&quot;:null}" fill="url(#color-6)"/><path d="M244.95217,188.81236l4.78204,-4.78204l4.86298,4.86298l-4.78204,4.78204z" fill="url(#color-7)"/><path d="M235.69999,170.34454l-4.78204,4.78204l-4.86298,-4.86298l4.78204,-4.78204z" data-paper-data="{&quot;index&quot;:null}" fill="url(#color-8)"/><path d="M249.76853,180c0,5.39501 -4.37352,9.76852 -9.76852,9.76852c-5.39501,0 -9.76852,-4.37352 -9.76852,-9.76852c0,-5.39501 4.37352,-9.76852 9.76852,-9.76852c5.39501,0 9.76852,4.37352 9.76852,9.76852z" fill="url(#color-9)"/></g></g></svg>