<svg version="1.1" xmlns="http://www.w3.org/2000/svg" xmlns:xlink="http://www.w3.org/1999/xlink" width="289.11315" height="91.31612" viewBox="0,0,289.11315,91.31612"><defs><linearGradient x1="331.64982" y1="179.99469" x2="381.64982" y2="179.99469" gradientUnits="userSpaceOnUse" id="color-1"><stop offset="0" stop-color="#b2b2b2"/><stop offset="1" stop-color="#8b8b8b"/></linearGradient><linearGradient x1="147.53667" y1="179.67857" x2="97.53667" y2="179.67857" gradientUnits="userSpaceOnUse" id="color-2"><stop offset="0" stop-color="#b2b2b2"/><stop offset="1" stop-color="#8b8b8b"/></linearGradient><linearGradient x1="108.84859" y1="161.47089" x2="136.06323" y2="161.47089" gradientUnits="userSpaceOnUse" id="color-3"><stop offset="0" stop-color="#ffffff"/><stop offset="1" stop-color="#dfdfdf"/></linearGradient><linearGradient x1="109.42762" y1="197.95008" x2="136.64226" y2="197.95008" gradientUnits="userSpaceOnUse" id="color-4"><stop offset="0" stop-color="#ffffff"/><stop offset="1" stop-color="#dfdfdf"/></linearGradient><linearGradient x1="123.03495" y1="192.8877" x2="123.03495" y2="197.54426" gradientUnits="userSpaceOnUse" id="color-5"><stop offset="0" stop-color="#cacaca"/><stop offset="1" stop-color="#6b6b6b"/></linearGradient><linearGradient x1="122.9454" y1="196.82787" x2="122.9454" y2="204.17091" gradientUnits="userSpaceOnUse" id="color-6"><stop offset="0" stop-color="#cacaca"/><stop offset="1" stop-color="#6b6b6b"/></linearGradient><linearGradient x1="149.09151" y1="180" x2="330.90849" y2="180" gradientUnits="userSpaceOnUse" id="color-7"><stop offset="0" stop-color="#ecfcff" stop-opacity="0"/><stop offset="1" stop-color="#ecfcff"/></linearGradient><linearGradient x1="330.90849" y1="180" x2="149.09151" y2="180" gradientUnits="userSpaceOnUse" id="color-8"><stop offset="0" stop-color="#ecfcff" stop-opacity="0"/><stop offset="1" stop-color="#ecfcff"/></linearGradient></defs><g transform="translate(-95.03667,-134.17857)"><g data-paper-data="{&quot;isPaintingLayer&quot;:true}" fill-rule="nonzero" stroke="#000000" stroke-linejoin="miter" stroke-miterlimit="10" stroke-dasharray="" stroke-dashoffset="0" style="mix-blend-mode: normal"><path d="M147.5,206.5v-53h185v53z" fill="none" stroke-width="5" stroke-linecap="butt"/><path d="M331.64982,222.99469v-86h50v86z" fill="url(#color-1)" stroke-width="5" stroke-linecap="butt"/><path d="M97.53667,222.67857v-86h50v86z" data-paper-data="{&quot;index&quot;:null}" fill="url(#color-2)" stroke-width="5" stroke-linecap="butt"/><g stroke-width="2.5"><path d="M108.84859,161.47089c0,-7.51512 6.09221,-13.60732 13.60732,-13.60732c7.51512,0 13.60732,6.09221 13.60732,13.60732c0,7.51512 -6.09221,13.60732 -13.60732,13.60732c-7.51512,0 -13.60732,-6.09221 -13.60732,-13.60732z" fill="url(#color-3)" stroke-linecap="butt"/><g fill="none"><path d="M118.32491,158.80714c0,-2.39844 1.94432,-4.34276 4.34276,-4.34276c2.39844,0 4.34276,1.94432 4.34276,4.34276c0,2.39844 -1.94432,4.34276 -4.34276,4.34276c-2.39844,0 -4.34276,-1.94432 -4.34276,-4.34276z" stroke-linecap="butt"/><path d="M122.95719,163.1499v11.00166" stroke-linecap="round"/></g></g><g stroke-linecap="butt"><path d="M109.42762,197.95008c0,-7.51512 6.09221,-13.60732 13.60732,-13.60732c7.51512,0 13.60732,6.09221 13.60732,13.60732c0,7.51512 -6.09221,13.60732 -13.60732,13.60732c-7.51512,0 -13.60732,-6.09221 -13.60732,-13.60732z" fill="url(#color-4)" stroke-width="2.5"/><path d="M128.9452,195.21598c0,1.28588 -2.64611,2.32828 -5.91026,2.32828c-3.26414,0 -5.91026,-1.04241 -5.91026,-2.32828c0,-1.28588 2.64611,-2.32828 5.91026,-2.32828c3.26414,0 5.91026,1.04241 5.91026,2.32828z" fill="url(#color-5)" stroke-width="1"/><path d="M119.6141,198.7817l-2.39567,-7.88253l2.91311,-0.88536l2.39567,7.88253z" fill="#00cbcb" stroke-width="1"/><path d="M122.31058,198.20163l3.04067,-7.65688l2.82972,1.12372l-3.04067,7.65688z" fill="#ffc200" stroke-width="1"/><path d="M121.34864,198.67864l0.09322,-8.23801l3.04449,0.03445l-0.09322,8.23801z" fill="#ff0000" stroke-width="1"/><path d="M117.12469,204.17091v-7.34305c0,0 0.81715,0.94356 2.18481,1.29355c1.03486,0.26483 2.53803,-0.03986 3.36724,-0.03986c0.83208,0 2.05902,0.31017 3.19393,0.04927c1.53149,-0.35207 2.89543,-1.30296 2.89543,-1.30296v7.34305c0,0 -0.90786,0.96396 -2.23337,1.37826c-1.25086,0.39097 -2.89325,0.23363 -3.85599,0.23363c-0.77704,0 -2.20958,0.26582 -3.20633,-0.05431c-1.43204,-0.45993 -2.34573,-1.55758 -2.34573,-1.55758z" fill="url(#color-6)" stroke-width="1"/></g><path d="M149.09151,223.71714v-87.43428h181.81697v87.43428z" fill="url(#color-7)" stroke-width="3.5" stroke-linecap="butt"/><path d="M149.09151,223.71714v-87.43428h181.81697v87.43428z" data-paper-data="{&quot;index&quot;:null}" fill="url(#color-8)" stroke-width="3.5" stroke-linecap="butt"/></g></g></svg>