<svg version="1.1" xmlns="http://www.w3.org/2000/svg" xmlns:xlink="http://www.w3.org/1999/xlink" width="41.03603" height="41.03603" viewBox="0,0,41.03603,41.03603"><defs><linearGradient x1="221.98198" y1="180.00001" x2="258.01802" y2="180.00001" gradientUnits="userSpaceOnUse" id="color-1"><stop offset="0" stop-color="#ffffff"/><stop offset="1" stop-color="#dfdfdf"/></linearGradient></defs><g transform="translate(-219.48198,-159.48198)"><g data-paper-data="{&quot;isPaintingLayer&quot;:true}" fill-rule="nonzero" stroke="#ff5200" stroke-linejoin="miter" stroke-miterlimit="10" stroke-dasharray="" stroke-dashoffset="0" style="mix-blend-mode: normal"><path d="M221.98198,180c0,-9.95108 8.06694,-18.01801 18.01801,-18.01801c9.95108,0 18.01802,8.06694 18.01802,18.01801c0,9.95108 -8.06695,18.01802 -18.01802,18.01802c-9.95108,0 -18.01801,-8.06695 -18.01801,-18.01802z" fill="url(#color-1)" stroke-width="5" stroke-linecap="butt"/><g fill="none" stroke-width="2.5"><path d="M237.41777,186.55843c0,-2.50574 2.03129,-4.53704 4.53703,-4.53704c2.50574,0 4.53704,2.0313 4.53704,4.53704c0,2.50574 -2.0313,4.53703 -4.53704,4.53703c-2.50574,0 -4.53703,-2.0313 -4.53703,-4.53703z" stroke-linecap="butt"/><path d="M231.06592,196.21479v-22.08026h6.35184" stroke-linecap="round"/><path d="M236.96408,185.93084h-5.74692" stroke-linecap="round"/><path d="M238.32517,173.40102c0,-2.50574 2.0313,-4.53704 4.53703,-4.53704c2.50574,0 4.53704,2.0313 4.53704,4.53704c0,2.50574 -2.0313,4.53703 -4.53704,4.53703c-2.50574,0 -4.53703,-2.0313 -4.53703,-4.53703z" stroke-linecap="butt"/></g></g></g></svg>