<svg version="1.1" xmlns="http://www.w3.org/2000/svg" xmlns:xlink="http://www.w3.org/1999/xlink" width="221.1497" height="41.03603" viewBox="0,0,221.1497,41.03603"><defs><linearGradient x1="333.94624" y1="180.44119" x2="369.98227" y2="180.44119" gradientUnits="userSpaceOnUse" id="color-1"><stop offset="0" stop-color="#ffffff"/><stop offset="1" stop-color="#dfdfdf"/></linearGradient></defs><g transform="translate(-151.33257,-159.92317)"><g data-paper-data="{&quot;isPaintingLayer&quot;:true}" fill-rule="nonzero" stroke-linejoin="miter" stroke-miterlimit="10" stroke-dasharray="" stroke-dashoffset="0" style="mix-blend-mode: normal"><path d="M153.83257,193.91818v-28h172.33333v28z" fill="none" stroke="#000000" stroke-width="5" stroke-linecap="butt"/><path d="M154.30076,194.1v-28.2h17v28.2z" fill="none" stroke="#000000" stroke-width="5" stroke-linecap="butt"/><path d="M171.50076,194.1v-28.2h17v28.2z" fill="#e100ff" stroke="#000000" stroke-width="5" stroke-linecap="butt"/><path d="M188.50076,194.1v-28.2h17v28.2z" fill="#1500ff" stroke="#000000" stroke-width="5" stroke-linecap="butt"/><path d="M205.70076,194.1v-28.2h17v28.2z" fill="#007aff" stroke="#000000" stroke-width="5" stroke-linecap="butt"/><path d="M223.10076,194.1v-28.2h17v28.2z" fill="#2dad00" stroke="#000000" stroke-width="5" stroke-linecap="butt"/><path d="M240.30076,194.1v-28.2h17v28.2z" fill="#fff500" stroke="#000000" stroke-width="5" stroke-linecap="butt"/><path d="M257.30076,194.1v-28.2h17v28.2z" fill="#ff5200" stroke="#000000" stroke-width="5" stroke-linecap="butt"/><path d="M274.50076,194.1v-28.2h17v28.2z" fill="#ff0000" stroke="#000000" stroke-width="5" stroke-linecap="butt"/><path d="M291.96743,194.1v-28.2h17v28.2z" fill="#474747" stroke="#000000" stroke-width="5" stroke-linecap="butt"/><path d="M309.16743,194.1v-28.2h17v28.2z" fill="#000000" stroke="#000000" stroke-width="5" stroke-linecap="butt"/><path d="M333.94624,180.44118c0,-9.95108 8.06694,-18.01801 18.01801,-18.01801c9.95108,0 18.01802,8.06694 18.01802,18.01801c0,9.95108 -8.06695,18.01802 -18.01802,18.01802c-9.95108,0 -18.01801,-8.06695 -18.01801,-18.01802z" fill="url(#color-1)" stroke="#e100ff" stroke-width="5" stroke-linecap="butt"/><g fill="none" stroke="#e100ff" stroke-width="2.5"><path d="M339.40759,175.18908c0,-1.38193 1.12027,-2.50221 2.50221,-2.50221c1.38193,0 2.50221,1.12027 2.50221,2.50221c0,1.38193 -1.12027,2.5022 -2.50221,2.5022c-1.38193,0 -2.50221,-1.12027 -2.50221,-2.5022z" stroke-linecap="butt"/><path d="M349.84139,172.71467v12.21563h-7.89916v-7.18693" stroke-linecap="round"/><path d="M349.75925,194.50571v-8.93991h8.62686" stroke-linecap="round"/><path d="M347.74476,170.32863c0,-1.38193 1.12027,-2.5022 2.50221,-2.5022c1.38193,0 2.5022,1.12027 2.5022,2.5022c0,1.38193 -1.12027,2.50221 -2.5022,2.50221c-1.38193,0 -2.50221,-1.12027 -2.50221,-2.50221z" stroke-linecap="butt"/><path d="M357.96096,175.69327v3.95539h-7.89916v-6.72298" data-paper-data="{&quot;index&quot;:null}" stroke-linecap="round"/><path d="M358.38776,170.13463c1.38194,0 2.50221,1.12027 2.50221,2.5022c0,1.38194 -1.12028,2.50221 -2.50221,2.50221c-1.38194,0 -2.50221,-1.12028 -2.50221,-2.50221c0,-1.38193 1.12028,-2.5022 2.50221,-2.5022z" data-paper-data="{&quot;index&quot;:null}" stroke-linecap="butt"/><path d="M358.99009,185.93558c0,-1.38193 1.12027,-2.50221 2.50221,-2.50221c1.38193,0 2.50221,1.12027 2.50221,2.50221c0,1.38193 -1.12027,2.5022 -2.50221,2.5022c-1.38193,0 -2.50221,-1.12027 -2.50221,-2.5022z" stroke-linecap="butt"/></g><path d="M349.7753,194.23016v3" fill="none" stroke="#e100ff" stroke-width="2.5" stroke-linecap="round"/></g></g></svg>