<svg version="1.1" xmlns="http://www.w3.org/2000/svg" xmlns:xlink="http://www.w3.org/1999/xlink" width="52.23808" height="52.23808" viewBox="0,0,52.23808,52.23808"><defs><linearGradient x1="224.54212" y1="180" x2="244.07916" y2="180" gradientUnits="userSpaceOnUse" id="color-1"><stop offset="0" stop-color="#000000"/><stop offset="1" stop-color="#4c5963"/></linearGradient><linearGradient x1="244.83059" y1="180.16717" x2="252.59622" y2="180.16717" gradientUnits="userSpaceOnUse" id="color-2"><stop offset="0" stop-color="#5d5d5d"/><stop offset="1" stop-color="#808080"/></linearGradient></defs><g transform="translate(-213.88096,-153.88096)"><g data-paper-data="{&quot;isPaintingLayer&quot;:true}" fill-rule="nonzero" stroke="#000000" stroke-linecap="butt" stroke-linejoin="miter" stroke-miterlimit="10" stroke-dasharray="" stroke-dashoffset="0" style="mix-blend-mode: normal"><path d="M214.88096,180c0,-13.87287 11.24618,-25.11904 25.11904,-25.11904c13.87287,0 25.11904,11.24618 25.11904,25.11904c0,13.87287 -11.24618,25.11904 -25.11904,25.11904c-13.87287,0 -25.11904,-11.24618 -25.11904,-25.11904z" fill="#ffffff" stroke-width="2"/><path d="M244.07916,180c0,5.39501 -4.37352,9.76852 -9.76852,9.76852c-5.39501,0 -9.76852,-4.37352 -9.76852,-9.76852c0,-5.39501 4.37352,-9.76852 9.76852,-9.76852c5.39501,0 9.76852,4.37352 9.76852,9.76852z" fill="url(#color-1)" stroke-width="2.5"/><path d="M244.83059,183.54858v-6.76282h7.76563v6.76282z" fill="url(#color-2)" stroke-width="2.5"/></g></g></svg>