<svg version="1.1" xmlns="http://www.w3.org/2000/svg" xmlns:xlink="http://www.w3.org/1999/xlink" width="41.03603" height="41.03603" viewBox="0,0,41.03603,41.03603"><defs><linearGradient x1="221.98199" y1="180.00001" x2="258.01802" y2="180.00001" gradientUnits="userSpaceOnUse" id="color-1"><stop offset="0" stop-color="#ffffff"/><stop offset="1" stop-color="#dfdfdf"/></linearGradient></defs><g transform="translate(-219.48199,-159.48198)"><g data-paper-data="{&quot;isPaintingLayer&quot;:true}" fill-rule="nonzero" stroke="#e100ff" stroke-linejoin="miter" stroke-miterlimit="10" stroke-dasharray="" stroke-dashoffset="0" style="mix-blend-mode: normal"><path d="M221.98199,180c0,-9.95108 8.06694,-18.01801 18.01801,-18.01801c9.95108,0 18.01802,8.06694 18.01802,18.01801c0,9.95108 -8.06695,18.01802 -18.01802,18.01802c-9.95108,0 -18.01801,-8.06695 -18.01801,-18.01802z" fill="url(#color-1)" stroke-width="5" stroke-linecap="butt"/><g fill="none" stroke-width="2.5"><path d="M227.44334,174.74789c0,-1.38193 1.12027,-2.50221 2.50221,-2.50221c1.38193,0 2.50221,1.12027 2.50221,2.50221c0,1.38193 -1.12027,2.5022 -2.50221,2.5022c-1.38193,0 -2.50221,-1.12027 -2.50221,-2.5022z" stroke-linecap="butt"/><path d="M237.87714,172.27348v12.21563h-7.89916v-7.18693" stroke-linecap="round"/><path d="M237.795,194.06452v-8.93991h8.62686" stroke-linecap="round"/><path d="M235.78051,169.88744c0,-1.38193 1.12027,-2.5022 2.50221,-2.5022c1.38193,0 2.5022,1.12027 2.5022,2.5022c0,1.38193 -1.12027,2.50221 -2.5022,2.50221c-1.38193,0 -2.50221,-1.12027 -2.50221,-2.50221z" stroke-linecap="butt"/><path d="M245.99671,175.25208v3.95539h-7.89916v-6.72298" data-paper-data="{&quot;index&quot;:null}" stroke-linecap="round"/><path d="M246.42351,169.69344c1.38194,0 2.50221,1.12027 2.50221,2.5022c0,1.38194 -1.12028,2.50221 -2.50221,2.50221c-1.38194,0 -2.50221,-1.12028 -2.50221,-2.50221c0,-1.38193 1.12028,-2.5022 2.50221,-2.5022z" data-paper-data="{&quot;index&quot;:null}" stroke-linecap="butt"/><path d="M247.02584,185.49439c0,-1.38193 1.12027,-2.50221 2.50221,-2.50221c1.38193,0 2.50221,1.12027 2.50221,2.50221c0,1.38193 -1.12027,2.5022 -2.50221,2.5022c-1.38193,0 -2.50221,-1.12027 -2.50221,-2.5022z" stroke-linecap="butt"/></g><path d="M237.81105,193.78898v3" fill="none" stroke-width="2.5" stroke-linecap="round"/></g></g></svg>