<svg version="1.1" xmlns="http://www.w3.org/2000/svg" xmlns:xlink="http://www.w3.org/1999/xlink" width="221.1497" height="41.03604" viewBox="0,0,221.1497,41.03604"><g transform="translate(-151.33257,-159.92316)"><g data-paper-data="{&quot;isPaintingLayer&quot;:true}" fill="none" fill-rule="nonzero" stroke="#000000" stroke-width="5" stroke-linecap="butt" stroke-linejoin="miter" stroke-miterlimit="10" stroke-dasharray="" stroke-dashoffset="0" style="mix-blend-mode: normal"><path d="M153.83257,193.91818v-28h172.33333v28z"/><path d="M333.94623,180.44118c0,-9.95108 8.06694,-18.01802 18.01802,-18.01802c9.95108,0 18.01802,8.06694 18.01802,18.01802c0,9.95108 -8.06694,18.01802 -18.01802,18.01802c-9.95108,0 -18.01802,-8.06694 -18.01802,-18.01802z"/><path d="M291.62924,194.01491v-28.2h34.19285v28.2z"/><path d="M257.21176,193.98542v-28.2h34.19284v28.2z"/><path d="M222.70485,194.21458v-28.2h34.19284v28.2z"/><path d="M188.28736,194.18509v-28.2h34.19284v28.2z"/><path d="M154.17791,194.20256v-28.2h34.19284v28.2z"/></g></g></svg>