<svg version="1.1" xmlns="http://www.w3.org/2000/svg" xmlns:xlink="http://www.w3.org/1999/xlink" width="83.21963" height="80.65089" viewBox="0,0,83.21963,80.65089"><defs><radialGradient cx="239.54491" cy="180.67888" r="24.05523" gradientUnits="userSpaceOnUse" id="color-1"><stop offset="0" stop-color="#ff0000"/><stop offset="1" stop-color="#ff0000" stop-opacity="0"/></radialGradient><radialGradient cx="240" cy="180" r="24.05523" gradientUnits="userSpaceOnUse" id="color-2"><stop offset="0" stop-color="#ff0000"/><stop offset="1" stop-color="#ff0000" stop-opacity="0"/></radialGradient></defs><g transform="translate(-190.36221,-133.19224)"><g data-paper-data="{&quot;isPaintingLayer&quot;:true}" fill-rule="nonzero" stroke-linejoin="miter" stroke-miterlimit="10" stroke-dasharray="" stroke-dashoffset="0" style="mix-blend-mode: normal"><path d="M235.14309,135.69224l-6.34213,12.68427l13.74129,8.80851l-3.17107,23.25448l-14.09363,-10.57022l-21.14044,7.75149l-11.2749,-12.68427" fill="none" stroke="#ff0000" stroke-width="5" stroke-linecap="round"/><path d="M225.62989,210.63845l-2.81873,-10.57022l11.97958,-0.35234l-6.34213,-8.10383l12.33192,-10.21788l19.0264,13.0366l-9.16086,10.57022l7.04681,6.34213" fill="none" stroke="#ff0000" stroke-width="5" stroke-linecap="round"/><path d="M271.08184,151.09288l-7.04681,16.56001l-11.2749,2.81873l-13.38894,11.2749" fill="none" stroke="#ff0000" stroke-width="5" stroke-linecap="round"/><path d="M215.48968,180.67888c0,-13.28536 10.7699,-24.05523 24.05523,-24.05523c13.28536,0 24.05523,10.7699 24.05523,24.05523c0,13.28536 -10.7699,24.05523 -24.05523,24.05523c-13.28536,0 -24.05523,-10.7699 -24.05523,-24.05523z" fill="url(#color-1)" stroke="none" stroke-width="0.5" stroke-linecap="butt"/><path d="M215.94477,180c0,-13.28536 10.7699,-24.05523 24.05523,-24.05523c13.28536,0 24.05523,10.7699 24.05523,24.05523c0,13.28536 -10.7699,24.05523 -24.05523,24.05523c-13.28536,0 -24.05523,-10.7699 -24.05523,-24.05523z" fill="url(#color-2)" stroke="none" stroke-width="0.5" stroke-linecap="butt"/></g></g></svg>