<svg version="1.1" xmlns="http://www.w3.org/2000/svg" xmlns:xlink="http://www.w3.org/1999/xlink" width="35.03137" height="32.56631" viewBox="0,0,35.03137,32.56631"><defs><linearGradient x1="230.23148" y1="180.00001" x2="249.76852" y2="180.00001" gradientUnits="userSpaceOnUse" id="color-1"><stop offset="0" stop-color="#000000"/><stop offset="1" stop-color="#9b772c"/></linearGradient><linearGradient x1="253.46244" y1="191.3889" x2="263.00002" y2="191.3889" gradientUnits="userSpaceOnUse" id="color-2"><stop offset="0" stop-color="#5d5d5d"/><stop offset="1" stop-color="#ff7b00"/></linearGradient><linearGradient x1="254.22248" y1="166.62076" x2="261.79555" y2="170.60148" gradientUnits="userSpaceOnUse" id="color-3"><stop offset="0" stop-color="#5d5d5d"/><stop offset="1" stop-color="#ff7b00"/></linearGradient><linearGradient x1="245.47692" y1="179.94446" x2="254.58803" y2="179.94446" gradientUnits="userSpaceOnUse" id="color-4"><stop offset="0" stop-color="#5d5d5d"/><stop offset="1" stop-color="#808080"/></linearGradient></defs><g transform="translate(-228.98148,-163.69445)"><g data-paper-data="{&quot;isPaintingLayer&quot;:true}" fill-rule="nonzero" stroke="#000000" stroke-linecap="butt" stroke-linejoin="miter" stroke-miterlimit="10" stroke-dasharray="" stroke-dashoffset="0" style="mix-blend-mode: normal"><path d="M249.76852,180.00001c0,5.39501 -4.37352,9.76852 -9.76852,9.76852c-5.39501,0 -9.76852,-4.37352 -9.76852,-9.76852c0,-5.39501 4.37352,-9.76852 9.76852,-9.76852c5.39501,0 9.76852,4.37352 9.76852,9.76852z" fill="url(#color-1)" stroke-width="2.5"/><path d="M255.42695,195.24794l-1.96451,-3.73736l7.57307,-3.98072l1.96451,3.73736z" data-paper-data="{&quot;index&quot;:null}" fill="url(#color-2)" stroke-width="1.5"/><path d="M253.24022,168.48944l1.96451,-3.73736l7.57307,3.98072l-1.96451,3.73736z" fill="url(#color-3)" stroke-width="1.5"/><path d="M245.47692,194.94446v-30h9.11111v30z" fill="url(#color-4)" stroke-width="2.5"/></g></g></svg>