<svg version="1.1" xmlns="http://www.w3.org/2000/svg" xmlns:xlink="http://www.w3.org/1999/xlink" width="221.14972" height="41.03604" viewBox="0,0,221.14972,41.03604"><defs><linearGradient x1="333.94624" y1="180.44118" x2="369.9823" y2="180.44118" gradientUnits="userSpaceOnUse" id="color-1"><stop offset="0" stop-color="#ffffff"/><stop offset="1" stop-color="#dfdfdf"/></linearGradient><linearGradient x1="352.32682" y1="174.53089" x2="352.32682" y2="180.39262" gradientUnits="userSpaceOnUse" id="color-2"><stop offset="0" stop-color="#cacaca"/><stop offset="1" stop-color="#6b6b6b"/></linearGradient><linearGradient x1="352.34316" y1="178.58734" x2="352.34316" y2="187.83084" gradientUnits="userSpaceOnUse" id="color-3"><stop offset="0" stop-color="#cacaca"/><stop offset="1" stop-color="#6b6b6b"/></linearGradient></defs><g transform="translate(-151.33256,-159.92316)"><g data-paper-data="{&quot;isPaintingLayer&quot;:true}" fill-rule="nonzero" stroke="#000000" stroke-linecap="butt" stroke-linejoin="miter" stroke-miterlimit="10" stroke-dasharray="" stroke-dashoffset="0" style="mix-blend-mode: normal"><path d="M153.83256,193.91818v-28h172.33333v28z" fill="none" stroke-width="5"/><path d="M333.94624,180.44118c0,-9.95108 8.06694,-18.01802 18.01802,-18.01802c9.95108,0 18.01802,8.06694 18.01802,18.01802c0,9.95108 -8.06694,18.01802 -18.01802,18.01802c-9.95108,0 -18.01802,-8.06694 -18.01802,-18.01802z" fill="url(#color-1)" stroke-width="5"/><path d="M291.62924,194.01491v-28.2h34.19285v28.2z" fill="#ff0000" stroke-width="5"/><path d="M257.21178,193.98542v-28.2h34.19284v28.2z" fill="#ff8f00" stroke-width="5"/><path d="M222.70485,194.21458v-28.2h34.19284v28.2z" fill="#fff500" stroke-width="5"/><path d="M188.28739,194.18509v-28.2h34.19284v28.2z" fill="none" stroke-width="5"/><path d="M154.17791,194.20256v-28.2h34.19284v28.2z" fill="none" stroke-width="5"/><path d="M359.7667,177.46175c0,1.61868 -3.33095,2.93087 -7.4399,2.93087c-4.10893,0 -7.4399,-1.3122 -7.4399,-2.93087c0,-1.61868 3.33095,-2.93087 7.4399,-2.93087c4.10893,0 7.4399,1.3122 7.4399,2.93087z" fill="url(#color-2)" stroke-width="1.5"/><path d="M348.14968,181.04685l-3.01569,-9.92262l3.66705,-1.1145l3.01569,9.92262z" fill="#00cbcb" stroke-width="1.5"/><path d="M351.54404,180.31665l3.82763,-9.63857l3.56208,1.41455l-3.82763,9.63857z" fill="#ffc200" stroke-width="1.5"/><path d="M350.33314,180.91711l0.11735,-10.3701l3.83244,0.04337l-0.11735,10.3701z" fill="#ff0000" stroke-width="1.5"/><path d="M345.01598,187.83084v-9.24352c0,0 1.02864,1.18776 2.75026,1.62834c1.3027,0.33337 3.1949,-0.05017 4.23872,-0.05017c1.04743,0 2.59192,0.39045 4.02056,0.06202c1.92785,-0.44319 3.6448,-1.64018 3.6448,-1.64018v9.24352c0,0 -1.14282,1.21344 -2.81139,1.73497c-1.5746,0.49216 -3.64205,0.29409 -4.85396,0.29409c-0.97815,0 -2.78144,0.33461 -4.03616,-0.06837c-1.80267,-0.57897 -2.95283,-1.9607 -2.95283,-1.9607z" fill="url(#color-3)" stroke-width="1.5"/></g></g></svg>