<svg version="1.1" xmlns="http://www.w3.org/2000/svg" xmlns:xlink="http://www.w3.org/1999/xlink" width="45.3165" height="45.3165" viewBox="0,0,45.3165,45.3165"><defs><radialGradient cx="240" cy="180" r="22.65825" gradientUnits="userSpaceOnUse" id="color-1"><stop offset="0" stop-color="#000000"/><stop offset="1" stop-color="#000000" stop-opacity="0"/></radialGradient><radialGradient cx="240" cy="180" r="16.65362" gradientUnits="userSpaceOnUse" id="color-2"><stop offset="0" stop-color="#ff0000" stop-opacity="0"/><stop offset="1" stop-color="#ff0000"/></radialGradient><radialGradient cx="240" cy="180" r="16.65362" gradientUnits="userSpaceOnUse" id="color-3"><stop offset="0" stop-color="#000000"/><stop offset="1" stop-color="#000000" stop-opacity="0"/></radialGradient><radialGradient cx="240" cy="180" r="16.65362" gradientUnits="userSpaceOnUse" id="color-4"><stop offset="0" stop-color="#000000"/><stop offset="1" stop-color="#000000" stop-opacity="0"/></radialGradient><radialGradient cx="240" cy="180" r="16.65362" gradientUnits="userSpaceOnUse" id="color-5"><stop offset="0" stop-color="#000000"/><stop offset="1" stop-color="#000000" stop-opacity="0"/></radialGradient></defs><g transform="translate(-217.34175,-157.34175)"><g data-paper-data="{&quot;isPaintingLayer&quot;:true}" fill-rule="nonzero" stroke-linejoin="miter" stroke-miterlimit="10" stroke-dasharray="" stroke-dashoffset="0" style="mix-blend-mode: normal"><path d="M240,157.34175c12.5138,0 22.65825,10.14442 22.65825,22.65825c0,12.5138 -10.14442,22.65825 -22.65825,22.65825c-12.5138,0 -22.65825,-10.14442 -22.65825,-22.65825c0,-12.5138 10.14442,-22.65825 22.65825,-22.65825z" data-paper-data="{&quot;index&quot;:null}" fill="url(#color-1)" stroke="none" stroke-width="0.5" stroke-linecap="butt"/><path d="M255.01462,172.96273c0.02011,0.01074 0.23263,-0.03833 0.46344,-0.09003c0.28151,-0.06305 0.09253,-0.85211 0.11251,-0.81919c0.0094,0.01548 0.22692,0.61273 0.11108,0.82979c-0.16631,0.31163 -0.68763,0.27435 -0.68831,0.28551c-0.00099,0.01655 -0.04798,0.54432 0.23667,0.83961c0.0151,0.01566 0.66194,-0.00557 0.89459,-0.25683c0.11746,-0.12685 0.05574,-0.36106 0.23012,-0.49942c0.15164,-0.12032 0.54867,-0.1551 0.55511,-0.1483c0.01821,0.01921 -0.44211,0.03091 -0.51339,0.299c-0.04504,0.16941 -0.09136,0.33185 -0.118,0.41574c-0.13938,0.43882 -0.84412,0.48628 -0.83849,0.50309c0.06083,0.18153 0.02552,0.5594 0.21635,0.5353c0.05317,-0.00672 0.16354,-0.10881 0.48253,-0.20683c0.27687,-0.08508 0.74631,0.18263 0.77312,0.1837c0.08698,0.00348 -0.43591,-0.17691 -0.76814,0.05833c-0.21625,0.15312 -0.26227,0.40441 -0.25802,0.41205c0.08836,0.15908 0.08096,0.53857 0.37004,0.60644c0.02504,0.00588 0.05976,0.09498 0.26661,0.05179c0.1536,-0.03207 0.35757,-0.62161 0.36402,-0.61172c0.00653,0.01002 -0.10637,0.60855 -0.20779,0.70392c-0.1549,0.14565 -0.18469,0.22749 -0.17691,0.23933c0.16477,0.25077 0.26051,0.40514 0.20389,0.41535c-0.12582,0.02269 -1.00084,-0.97023 -1.51287,-2.12451c-0.53418,-1.20423 -0.70045,-2.57317 -0.54857,-2.61026c0.03958,-0.00966 -0.02818,0.78592 0.35037,0.98812z" data-paper-data="{&quot;index&quot;:null}" fill="#ff0000" stroke="none" stroke-width="0" stroke-linecap="butt"/><path d="M251.94776,168.94698c0.02268,0.00235 0.20096,-0.12329 0.3952,-0.25827c0.2369,-0.16462 -0.23588,-0.82402 -0.20495,-0.80108c0.01455,0.01079 0.44138,0.48179 0.41601,0.72651c-0.03641,0.35135 -0.53326,0.51357 -0.52966,0.52416c0.00533,0.01569 0.16098,0.52218 0.53602,0.68822c0.01989,0.00881 0.61089,-0.25496 0.73153,-0.57545c0.0609,-0.1618 -0.08463,-0.3554 0.02463,-0.54933c0.09503,-0.16865 0.44957,-0.35069 0.45811,-0.34682c0.02411,0.01092 -0.39776,0.19547 -0.36258,0.47063c0.02222,0.17388 0.04063,0.34179 0.04762,0.42953c0.03653,0.45897 -0.59819,0.76888 -0.58663,0.78231c0.12484,0.14515 0.23474,0.5084 0.40236,0.41408c0.0467,-0.02629 0.11038,-0.16248 0.36879,-0.37364c0.22429,-0.18328 0.76004,-0.11251 0.78528,-0.12164c0.08187,-0.02961 -0.47044,0.00068 -0.68932,0.3439c-0.14248,0.22341 -0.09026,0.47348 -0.08344,0.47896c0.14185,0.11397 0.27821,0.46819 0.57153,0.42195c0.02541,-0.00401 0.09118,0.0654 0.26644,-0.05266c0.13013,-0.08766 0.09654,-0.71058 0.10625,-0.70386c0.00982,0.00682 0.13115,0.60369 0.07322,0.73029c-0.08848,0.19335 -0.0852,0.28036 -0.07351,0.28839c0.24722,0.17004 0.39414,0.27687 0.34556,0.3077c-0.10795,0.0685 -1.29299,-0.5208 -2.20275,-1.39648c-0.94914,-0.9136 -1.61972,-2.11857 -1.49307,-2.21023c0.033,-0.02388 0.27049,0.73845 0.69736,0.78283z" data-paper-data="{&quot;index&quot;:null}" fill="#ff0000" stroke="none" stroke-width="0" stroke-linecap="butt"/><path d="M248.59467,165.43121c0.02268,0.00235 0.20096,-0.12329 0.3952,-0.25827c0.2369,-0.16462 -0.23588,-0.82402 -0.20495,-0.80108c0.01455,0.01079 0.44138,0.48179 0.41602,0.72651c-0.03641,0.35135 -0.53326,0.51357 -0.52966,0.52416c0.00533,0.01569 0.16098,0.52218 0.53602,0.68822c0.0199,0.00881 0.61089,-0.25496 0.73153,-0.57545c0.0609,-0.1618 -0.08463,-0.3554 0.02463,-0.54933c0.09503,-0.16865 0.44957,-0.35069 0.45811,-0.34682c0.02411,0.01092 -0.39775,0.19547 -0.36258,0.47063c0.02222,0.17388 0.04063,0.34179 0.04762,0.42953c0.03653,0.45897 -0.59819,0.76888 -0.58663,0.78231c0.12484,0.14515 0.23474,0.5084 0.40237,0.41408c0.0467,-0.02629 0.11038,-0.16248 0.36879,-0.37364c0.22429,-0.18328 0.76004,-0.11251 0.78528,-0.12164c0.08187,-0.02961 -0.47044,0.00068 -0.68932,0.3439c-0.14247,0.22341 -0.09026,0.47348 -0.08344,0.47896c0.14185,0.11397 0.27821,0.46819 0.57153,0.42195c0.02541,-0.00401 0.09118,0.0654 0.26643,-0.05266c0.13013,-0.08766 0.09654,-0.71058 0.10625,-0.70386c0.00982,0.00682 0.13115,0.60369 0.07322,0.73029c-0.08848,0.19335 -0.0852,0.28036 -0.07351,0.28839c0.24722,0.17004 0.39414,0.27687 0.34556,0.3077c-0.10795,0.0685 -1.29299,-0.5208 -2.20275,-1.39648c-0.94914,-0.9136 -1.61972,-2.11857 -1.49307,-2.21023c0.033,-0.02388 0.27049,0.73845 0.69736,0.78283z" data-paper-data="{&quot;index&quot;:null}" fill="#ff0000" stroke="none" stroke-width="0" stroke-linecap="butt"/><path d="M247.25698,164.7615c-0.02162,0.15484 -1.40034,0.12714 -2.6522,-0.28318c-1.19992,-0.3933 -2.27585,-1.16399 -2.26593,-1.29145c0.00447,-0.05736 0.16768,0.02236 0.43376,0.16107c0.01257,0.00656 0.09099,-0.03132 0.22032,-0.20009c0.08468,-0.1105 0.66881,-0.28304 0.67944,-0.27755c0.01049,0.00542 -0.55554,0.26767 -0.57199,0.42371c-0.02215,0.21014 0.06998,0.23572 0.07835,0.26004c0.09661,0.28079 0.47343,0.23525 0.64059,0.30715c0.00804,0.00345 0.25342,-0.06761 0.38401,-0.29816c0.20062,-0.3542 -0.03146,-0.85629 -0.01925,-0.7701c0.00377,0.02657 0.31735,0.46668 0.26055,0.75072c-0.06544,0.32724 -0.15591,0.44731 -0.15724,0.50089c-0.00478,0.19229 0.36762,0.11914 0.55435,0.1614c0.01729,0.00391 -0.0064,-0.70203 0.41617,-0.88485c0.08079,-0.03495 0.23774,-0.09737 0.40176,-0.15922c0.25956,-0.09788 0.22489,-0.55704 0.24583,-0.54086c0.00741,0.00573 0.01276,0.40424 -0.0917,0.56721c-0.12012,0.18741 -0.35934,0.14958 -0.47373,0.2792c-0.22659,0.25676 -0.18263,0.90245 -0.16553,0.9159c0.32243,0.2535 0.84279,0.15365 0.85916,0.151c0.01104,-0.00179 -0.07849,-0.51672 0.21482,-0.71354c0.2043,-0.13709 0.82041,0.01925 0.83676,0.02704c0.03476,0.01657 -0.76931,-0.09206 -0.80372,0.19436c-0.02821,0.23484 -0.05565,0.45122 -0.04294,0.47015c0.23926,0.3563 1.02399,0.20883 1.01836,0.24918z" fill="#ff0000" stroke="none" stroke-width="0" stroke-linecap="butt"/><path d="M238.388,163.54228c0.01916,-0.01236 0.07955,-0.22194 0.14655,-0.44878c0.08171,-0.27667 -0.69974,-0.49499 -0.66126,-0.49646c0.0181,-0.00069 0.64578,0.09946 0.77919,0.30619c0.19153,0.2968 -0.09442,0.7343 -0.08499,0.74031c0.01398,0.00891 0.4524,0.30648 0.8488,0.20121c0.02103,-0.00559 0.31683,-0.58121 0.21031,-0.90666c-0.05378,-0.16431 -0.28846,-0.22419 -0.32463,-0.44383c-0.03146,-0.191 0.1311,-0.55489 0.14018,-0.55722c0.02564,-0.00658 -0.18785,0.40141 0.01181,0.59399c0.12617,0.12169 0.24562,0.24112 0.30599,0.30518c0.31578,0.33508 0.01475,0.97406 0.03217,0.9773c0.18821,0.03506 0.50129,0.24957 0.57297,0.07107c0.01997,-0.04974 -0.01562,-0.19581 0.05374,-0.52224c0.0602,-0.28333 0.52232,-0.56348 0.53628,-0.5864c0.04531,-0.07433 -0.36647,0.29499 -0.32234,0.69967c0.02872,0.26341 0.22598,0.42575 0.23473,0.42576c0.18197,0.00009 0.51003,0.19099 0.70984,-0.02867c0.01731,-0.01903 0.11205,-0.00607 0.17484,-0.20784c0.04662,-0.14982 -0.36948,-0.6146 -0.3577,-0.61543c0.01193,-0.00084 0.48015,0.38872 0.5142,0.5237c0.05201,0.20617 0.10905,0.27197 0.12319,0.27093c0.29924,-0.02213 0.48068,-0.03077 0.46209,0.02366c-0.04132,0.12099 -1.33435,0.40317 -2.59198,0.28968c-1.31206,-0.1184 -2.58927,-0.63839 -2.54787,-0.78915c0.01079,-0.03929 0.67317,0.40659 1.03386,0.17401z" data-paper-data="{&quot;index&quot;:null}" fill="#ff0000" stroke="none" stroke-width="0" stroke-linecap="butt"/><path d="M238.02861,163.91389c0.05154,0.1476 -1.1874,0.75312 -2.4884,0.96034c-1.24701,0.19862 -2.55624,0.0049 -2.60567,-0.11301c-0.02224,-0.05306 0.15937,-0.05675 0.45942,-0.05499c0.01418,0.00008 0.06661,-0.06944 0.10451,-0.27866c0.02481,-0.13699 0.4655,-0.55743 0.47746,-0.55741c0.0118,0.00002 -0.37178,0.49199 -0.31509,0.63829c0.07634,0.19703 0.16998,0.17767 0.18854,0.19548c0.21426,0.20558 0.5286,-0.00714 0.71015,-0.01959c0.00873,-0.0006 0.1945,-0.17596 0.20527,-0.44071c0.01655,-0.40673 -0.41936,-0.74724 -0.3691,-0.67616c0.01549,0.02192 0.49556,0.27004 0.57487,0.54863c0.09136,0.32097 0.06578,0.46912 0.08908,0.51738c0.08364,0.17321 0.38143,-0.06206 0.56683,-0.10982c0.01717,-0.00442 -0.32656,-0.62148 -0.03426,-0.97723c0.05588,-0.06801 0.16695,-0.19527 0.28456,-0.32525c0.18612,-0.20569 -0.05457,-0.59824 -0.02855,-0.59342c0.00921,0.0017 0.19611,0.35371 0.17769,0.54642c-0.02118,0.22159 -0.25125,0.29727 -0.29375,0.46485c-0.08418,0.33193 0.25003,0.88615 0.27139,0.89029c0.40265,0.07811 0.81984,-0.24855 0.83319,-0.25838c0.009,-0.00664 -0.30599,-0.42372 -0.13506,-0.73284c0.11906,-0.21531 0.7385,-0.35786 0.7566,-0.35839c0.03849,-0.00114 -0.72633,0.26973 -0.62603,0.54021c0.08225,0.22177 0.15673,0.42677 0.17668,0.43779c0.37565,0.20755 1.00622,-0.28228 1.01966,-0.24382z" fill="#ff0000" stroke="none" stroke-width="0" stroke-linecap="butt"/><path d="M233.65767,164.82833c0.09919,0.12086 -0.85572,1.11573 -2.00595,1.75798c-1.10251,0.61561 -2.39843,0.88424 -2.48543,0.79055c-0.03914,-0.04215 0.13011,-0.10812 0.41244,-0.20972c0.01334,-0.0048 0.03865,-0.08812 0.00224,-0.29762c-0.02384,-0.13716 0.24525,-0.68358 0.25649,-0.68767c0.0111,-0.00404 -0.17976,0.58987 -0.0762,0.70774c0.13948,0.15873 0.22074,0.10833 0.24429,0.11867c0.27192,0.1193 0.49386,-0.18861 0.66003,-0.26277c0.00799,-0.00357 0.12207,-0.23214 0.04108,-0.48443c-0.12442,-0.38759 -0.65088,-0.5573 -0.57924,-0.50785c0.02208,0.01524 0.55822,0.08301 0.72855,0.31731c0.19623,0.26992 0.22319,0.41783 0.26168,0.45512c0.13814,0.13385 0.33678,-0.18953 0.49442,-0.29816c0.01459,-0.01005 -0.52048,-0.47116 -0.36845,-0.90576c0.02906,-0.08308 0.08956,-0.24079 0.15526,-0.4033c0.10397,-0.25718 -0.25711,-0.54293 -0.23101,-0.54736c0.00924,-0.00157 0.30585,0.26463 0.35487,0.4519c0.05637,0.21535 -0.1336,0.36557 -0.11584,0.53754c0.03518,0.34063 0.5397,0.74599 0.56118,0.74253c0.40493,-0.06522 0.68425,-0.51549 0.69339,-0.52932c0.00617,-0.00933 -0.43311,-0.29254 -0.37899,-0.6416c0.0377,-0.24312 0.57025,-0.59014 0.58706,-0.59687c0.03575,-0.01432 -0.58915,0.5032 -0.40189,0.72264c0.15353,0.17992 0.29402,0.34677 0.31654,0.35025c0.42414,0.0656 0.84763,-0.61129 0.87348,-0.5798z" fill="#ff0000" stroke="none" stroke-width="0" stroke-linecap="butt"/><path d="M229.99547,166.69934c0.12665,0.09166 -0.54393,1.29663 -1.49307,2.21023c-0.90976,0.87569 -2.0948,1.46498 -2.20275,1.39648c-0.04858,-0.03082 0.09834,-0.13765 0.34556,-0.30769c0.01168,-0.00804 0.01497,-0.09505 -0.07351,-0.2884c-0.05793,-0.12659 0.06339,-0.72347 0.07322,-0.73029c0.00971,-0.00673 -0.02388,0.6162 0.10625,0.70386c0.17525,0.11805 0.24103,0.04865 0.26643,0.05265c0.29332,0.04624 0.42968,-0.30798 0.57153,-0.42195c0.00682,-0.00548 0.05903,-0.25555 -0.08344,-0.47896c-0.21888,-0.34322 -0.77118,-0.3735 -0.68932,-0.3439c0.02523,0.00912 0.56099,-0.06164 0.78528,0.12164c0.25842,0.21116 0.32209,0.34735 0.36879,0.37364c0.16763,0.09433 0.27753,-0.26892 0.40237,-0.41408c0.01155,-0.01344 -0.62317,-0.32334 -0.58663,-0.78231c0.00699,-0.08774 0.02539,-0.25565 0.04762,-0.42953c0.03517,-0.27516 -0.3867,-0.45971 -0.36259,-0.47064c0.00854,-0.00386 0.36308,0.17817 0.45811,0.34683c0.10927,0.19394 -0.03626,0.38753 0.02463,0.54933c0.12063,0.32049 0.71163,0.58425 0.73153,0.57545c0.37504,-0.16603 0.5307,-0.67251 0.53602,-0.68822c0.00359,-0.01059 -0.49326,-0.17281 -0.52966,-0.52416c-0.02536,-0.24472 0.40147,-0.71573 0.41601,-0.72651c0.03093,-0.02294 -0.44185,0.63646 -0.20495,0.80108c0.19423,0.13497 0.37252,0.26062 0.3952,0.25827c0.42687,-0.04438 0.66436,-0.80672 0.69737,-0.78283z" fill="#ff0000" stroke="none" stroke-width="0" stroke-linecap="butt"/><path d="M223.8194,182.43722h-1.50116l-1.75134,0.75058l-1.50116,-1.00077" fill="none" stroke="#ff0000" stroke-width="0.5" stroke-linecap="round"/><path d="M223.8194,178.43413l-0.50039,-1.50116l-4.25328,-1.75135l1.00077,-1.75135" fill="none" stroke="#ff0000" stroke-width="0.5" stroke-linecap="round"/><path d="M225.32056,174.18086l-0.75058,-1.75134l-1.25097,-4.25328" fill="none" stroke="#ff0000" stroke-width="0.5" stroke-linecap="round"/><path d="M222.31824,166.42488l3.25251,0.50038l2.50192,2.25174" fill="none" stroke="#ff0000" stroke-width="0.5" stroke-linecap="round"/><path d="M229.32364,168.17622l-1.50116,-0.75058l-3.00231,-4.75366" fill="none" stroke="#ff0000" stroke-width="0.5" stroke-linecap="round"/><path d="M231.57538,166.17468l-1.75135,-1.50116l0.50039,-1.75135" fill="none" stroke="#ff0000" stroke-width="0.5" stroke-linecap="round"/><path d="M233.07654,160.92063l2.00154,2.25174l-1.00077,1.25097" fill="none" stroke="#ff0000" stroke-width="0.5" stroke-linecap="round"/><path d="M238.33058,164.42333l-1.50116,-2.50193l2.00154,-3.75289" fill="none" stroke="#ff0000" stroke-width="0.5" stroke-linecap="round"/><path d="M240.33212,164.67353v-2.50193l2.00154,-2.25173" fill="none" stroke="#ff0000" stroke-width="0.5" stroke-linecap="round"/><path d="M243.58463,164.17314l0.75058,-2.25174h2.00154" fill="none" stroke="#ff0000" stroke-width="0.5" stroke-linecap="round"/><path d="M251.34061,162.1716l-1.50116,3.00232h-2.50193v-1.50116l1.00077,-2.25174" fill="none" stroke="#ff0000" stroke-width="0.5" stroke-linecap="round"/><path d="M256.09426,167.42564l-0.25019,3.5027l-4.00308,-0.50039l2.00154,-3.75289l-0.25019,-2.00154" fill="none" stroke="#ff0000" stroke-width="0.5" stroke-linecap="round"/><path d="M251.841,164.17314l0.50039,2.00154l-2.50193,0.75057" fill="none" stroke="#ff0000" stroke-width="0.5" stroke-linecap="round"/><path d="M254.34292,174.18086l3.00231,-1.25096l2.00154,2.25173" fill="none" stroke="#ff0000" stroke-width="0.5" stroke-linecap="round"/><path d="M260.34755,178.43413l-3.00232,1.75134l-2.25173,-1.00077" fill="none" stroke="#ff0000" stroke-width="0.5" stroke-linecap="round"/><path d="M255.59388,181.68664l3.5027,1.25097v2.00154" fill="none" stroke="#ff0000" stroke-width="0.5" stroke-linecap="round"/><path d="M255.84407,177.43336l2.25174,-0.25019" fill="none" stroke="#ff0000" stroke-width="0.5" stroke-linecap="round"/><path d="M255.34369,186.4403l2.50192,1.25097l-0.25019,2.50193" fill="none" stroke="#ff0000" stroke-width="0.5" stroke-linecap="round"/><path d="M253.09195,189.44261l2.25174,1.50116l-1.00077,2.75212" fill="none" stroke="#ff0000" stroke-width="0.5" stroke-linecap="round"/><path d="M251.34061,192.19474h2.25173" fill="none" stroke="#ff0000" stroke-width="0.5" stroke-linecap="round"/><path d="M248.33829,193.6959l2.75212,0.75058l-1.50116,1.50116" fill="none" stroke="#ff0000" stroke-width="0.5" stroke-linecap="round"/><path d="M248.0881,194.94686l-1.25097,1.75135l-0.50039,-1.75135" fill="none" stroke="#ff0000" stroke-width="0.5" stroke-linecap="round"/><path d="M241.0827,199.45032l1.25097,-1.25096l1.75135,-2.75212l0.25019,2.00154h2.25173" fill="none" stroke="#ff0000" stroke-width="0.5" stroke-linecap="round"/><path d="M239.83174,195.94763l-0.25019,2.50193l-1.25097,1.00077" fill="none" stroke="#ff0000" stroke-width="0.5" stroke-linecap="round"/><path d="M238.08039,200.45109l-1.75135,-1.25097l-0.25019,-3.5027" fill="none" stroke="#ff0000" stroke-width="0.5" stroke-linecap="round"/><path d="M223.34638,180c0,-9.19756 7.45608,-16.65362 16.65362,-16.65362c9.19756,0 16.65362,7.45608 16.65362,16.65362c0,9.19756 -7.45608,16.65362 -16.65362,16.65362c-9.19756,0 -16.65362,-7.45608 -16.65362,-16.65362z" fill="url(#color-2)" stroke="none" stroke-width="0.5" stroke-linecap="butt"/><path d="M223.34638,180c0,-9.19756 7.45608,-16.65362 16.65362,-16.65362c9.19756,0 16.65362,7.45608 16.65362,16.65362c0,9.19756 -7.45608,16.65362 -16.65362,16.65362c-9.19756,0 -16.65362,-7.45608 -16.65362,-16.65362z" fill="url(#color-3)" stroke="none" stroke-width="0.5" stroke-linecap="butt"/><path d="M223.34638,180c0,-9.19756 7.45608,-16.65362 16.65362,-16.65362c9.19756,0 16.65362,7.45608 16.65362,16.65362c0,9.19756 -7.45608,16.65362 -16.65362,16.65362c-9.19756,0 -16.65362,-7.45608 -16.65362,-16.65362z" fill="url(#color-4)" stroke="none" stroke-width="0.5" stroke-linecap="butt"/><path d="M223.34638,180c0,-9.19756 7.45608,-16.65362 16.65362,-16.65362c9.19756,0 16.65362,7.45608 16.65362,16.65362c0,9.19756 -7.45608,16.65362 -16.65362,16.65362c-9.19756,0 -16.65362,-7.45608 -16.65362,-16.65362z" fill="url(#color-5)" stroke="none" stroke-width="0.5" stroke-linecap="butt"/><path d="M234.30523,195.28936l-0.57692,2.65384l-2.53846,0.69231" fill="none" stroke="#ff0000" stroke-width="0.5" stroke-linecap="round"/><path d="M232.80523,195.17398l-2.07692,0.46154l-0.23077,1.26923h-1.96154" fill="none" stroke="#ff0000" stroke-width="0.5" stroke-linecap="round"/><path d="M225.07446,192.86628h1.5l0.69231,-0.80769l2.19231,0.11539l-1.03846,2.30769l-1.38462,0.80769" fill="none" stroke="#ff0000" stroke-width="0.5" stroke-linecap="round"/><path d="M223.68985,192.28936l0.69231,-0.69231l1.15385,-0.46154l0.57692,-1.61538l0.92307,0.23077" fill="none" stroke="#ff0000" stroke-width="0.5" stroke-linecap="round"/><path d="M220.57446,188.02013l2.07692,-0.92307l0.69231,1.15385l2.19231,-0.11539" fill="none" stroke="#ff0000" stroke-width="0.5" stroke-linecap="round"/><path d="M219.65139,185.82783l4.96154,-0.57692" fill="none" stroke="#ff0000" stroke-width="0.5" stroke-linecap="round"/><path d="M219.0222,179.06289l2.07692,0.11539l2.76923,1.61538" fill="none" stroke="#ff0000" stroke-width="0.5" stroke-linecap="round"/><path d="M224.32989,175.13981l-1.73077,-0.92307l-0.11539,-1.61538" fill="none" stroke="#ff0000" stroke-width="0.5" stroke-linecap="round"/></g></g></svg>