<svg version="1.1" xmlns="http://www.w3.org/2000/svg" xmlns:xlink="http://www.w3.org/1999/xlink" width="41.08603" height="41.26103" viewBox="0,0,41.08603,41.26103"><defs><linearGradient x1="221.93198" y1="180.22501" x2="257.96801" y2="180.22501" gradientUnits="userSpaceOnUse" id="color-1"><stop offset="0" stop-color="#ffffff"/><stop offset="1" stop-color="#dfdfdf"/></linearGradient></defs><g transform="translate(-219.43198,-159.48198)"><g data-paper-data="{&quot;isPaintingLayer&quot;:true}" fill-rule="nonzero" stroke-linejoin="miter" stroke-miterlimit="10" stroke-dasharray="" stroke-dashoffset="0" style="mix-blend-mode: normal"><path d="M221.93198,180.225c0,-9.95108 8.06694,-18.01801 18.01801,-18.01801c9.95108,0 18.01802,8.06694 18.01802,18.01801c0,9.95108 -8.06695,18.01802 -18.01802,18.01802c-9.95108,0 -18.01801,-8.06695 -18.01801,-18.01802z" fill="url(#color-1)" stroke="#23ff00" stroke-width="5" stroke-linecap="butt"/><g fill="none" stroke="#00ffc7" stroke-width="2"><path d="M244.92969,176.16323c0,-0.94634 0.76715,-1.71349 1.71349,-1.71349c0.94633,0 1.71349,0.76715 1.71349,1.71349c0,0.94634 -0.76715,1.7135 -1.71349,1.7135c-0.94633,0 -1.71349,-0.76716 -1.71349,-1.7135z" stroke-linecap="butt"/><path d="M236.93063,181.85581h4.44018v5.40928h-7.54698" data-paper-data="{&quot;index&quot;:null}" stroke-linecap="round"/><path d="M241.55327,191.98498v-6.12198h4.54397" stroke-linecap="round"/><path d="M233.45711,182.01666c0,-0.94634 0.76716,-1.71349 1.7135,-1.71349c0.94633,0 1.7135,0.76715 1.7135,1.71349c0,0.94634 -0.76716,1.7135 -1.7135,1.7135c-0.94633,0 -1.7135,-0.76716 -1.7135,-1.7135z" stroke-linecap="butt"/><path d="M246.61217,178.64486v2.70862h-5.40928v-4.60384" data-paper-data="{&quot;index&quot;:null}" stroke-linecap="round"/><path d="M247.92718,184.06563c0.94634,0 1.71349,0.76716 1.71349,1.71349c0,0.94634 -0.76716,1.7135 -1.71349,1.7135c-0.94634,0 -1.71349,-0.76716 -1.71349,-1.7135c0,-0.94634 0.76716,-1.71349 1.71349,-1.71349z" data-paper-data="{&quot;index&quot;:null}" stroke-linecap="butt"/><path d="M230.43056,187.0678c0,-0.94634 0.76715,-1.7135 1.71349,-1.7135c0.94633,0 1.7135,0.76716 1.7135,1.7135c0,0.94634 -0.76716,1.71349 -1.7135,1.71349c-0.94633,0 -1.71349,-0.76715 -1.71349,-1.71349z" stroke-linecap="butt"/><path d="M233.83879,172.61777c0,-0.94634 0.76715,-1.71349 1.71349,-1.71349c0.94633,0 1.71349,0.76715 1.71349,1.71349c0,0.94634 -0.76715,1.7135 -1.71349,1.7135c-0.94633,0 -1.71349,-0.76716 -1.71349,-1.7135z" stroke-linecap="butt"/><path d="M241.15762,172.56782v4.60384h-5.40928v-2.70862" data-paper-data="{&quot;index&quot;:null}" stroke-linecap="round"/><path d="M239.47516,170.79959c0,-0.94634 0.76715,-1.71349 1.71349,-1.71349c0.94633,0 1.71349,0.76715 1.71349,1.71349c0,0.94634 -0.76715,1.71349 -1.71349,1.71349c-0.94633,0 -1.71349,-0.76716 -1.71349,-1.71349z" stroke-linecap="butt"/></g><path d="M241.58153,192.43719v3" fill="none" stroke="#00ffc7" stroke-width="2" stroke-linecap="round"/><path d="M221.98199,180c0,-9.95108 8.06694,-18.01801 18.01801,-18.01801c9.95108,0 18.01802,8.06694 18.01802,18.01801c0,9.95108 -8.06695,18.01802 -18.01802,18.01802c-9.95108,0 -18.01801,-8.06695 -18.01801,-18.01802z" fill="none" stroke="#23ff00" stroke-width="5" stroke-linecap="butt"/></g></g></svg>