<svg version="1.1" xmlns="http://www.w3.org/2000/svg" xmlns:xlink="http://www.w3.org/1999/xlink" width="41.03603" height="41.03603" viewBox="0,0,41.03603,41.03603"><defs><linearGradient x1="221.98198" y1="180.00001" x2="258.01802" y2="180.00001" gradientUnits="userSpaceOnUse" id="color-1"><stop offset="0" stop-color="#ffffff"/><stop offset="1" stop-color="#dfdfdf"/></linearGradient></defs><g transform="translate(-219.48198,-159.48198)"><g data-paper-data="{&quot;isPaintingLayer&quot;:true}" fill-rule="nonzero" stroke="#fff500" stroke-linejoin="miter" stroke-miterlimit="10" stroke-dasharray="" stroke-dashoffset="0" style="mix-blend-mode: normal"><path d="M221.98198,180c0,-9.95108 8.06694,-18.01801 18.01801,-18.01801c9.95108,0 18.01802,8.06694 18.01802,18.01801c0,9.95108 -8.06695,18.01802 -18.01802,18.01802c-9.95108,0 -18.01801,-8.06695 -18.01801,-18.01802z" fill="url(#color-1)" stroke-width="5" stroke-linecap="butt"/><g fill="none" stroke-width="2.5"><path d="M244.99002,184.22854c0,-1.7767 1.44029,-3.21701 3.217,-3.21701c1.7767,0 3.21701,1.4403 3.21701,3.21701c0,1.7767 -1.4403,3.217 -3.21701,3.217c-1.7767,0 -3.217,-1.4403 -3.217,-3.217z" stroke-linecap="butt"/><path d="M235.99554,175.89204h4.5038v15.65609" data-paper-data="{&quot;index&quot;:null}" stroke-linecap="round"/><path d="M244.66833,183.78354h-4.07488" stroke-linecap="round"/><path d="M229.32517,176.08098c0,-1.7767 1.44029,-3.21701 3.217,-3.21701c1.7767,0 3.21701,1.4403 3.21701,3.21701c0,1.7767 -1.4403,3.217 -3.21701,3.217c-1.7767,0 -3.217,-1.4403 -3.217,-3.217z" stroke-linecap="butt"/></g><path d="M240.50034,196.17496v-4.66667" fill="none" stroke-width="2.5" stroke-linecap="round"/></g></g></svg>