<svg version="1.1" xmlns="http://www.w3.org/2000/svg" xmlns:xlink="http://www.w3.org/1999/xlink" width="41.03603" height="41.03603" viewBox="0,0,41.03603,41.03603"><defs><linearGradient x1="221.98198" y1="180.00001" x2="258.01802" y2="180.00001" gradientUnits="userSpaceOnUse" id="color-1"><stop offset="0" stop-color="#ffffff"/><stop offset="1" stop-color="#dfdfdf"/></linearGradient></defs><g transform="translate(-219.48198,-159.48198)"><g data-paper-data="{&quot;isPaintingLayer&quot;:true}" fill-rule="nonzero" stroke="#2dad00" stroke-linejoin="miter" stroke-miterlimit="10" stroke-dasharray="" stroke-dashoffset="0" style="mix-blend-mode: normal"><path d="M221.98198,180c0,-9.95108 8.06694,-18.01801 18.01801,-18.01801c9.95108,0 18.01802,8.06694 18.01802,18.01801c0,9.95108 -8.06695,18.01802 -18.01802,18.01802c-9.95108,0 -18.01801,-8.06695 -18.01801,-18.01802z" fill="url(#color-1)" stroke-width="5" stroke-linecap="butt"/><g fill="none" stroke-width="2.5"><path d="M231.19334,177.59286c0,-1.44668 1.17276,-2.61945 2.61945,-2.61945c1.44668,0 2.61945,1.17276 2.61945,2.61945c0,1.44668 -1.17276,2.61944 -2.61945,2.61944c-1.44668,0 -2.61945,-1.17276 -2.61945,-2.61944z" stroke-linecap="butt"/><g stroke-linecap="round"><path d="M244.36599,175.00252v12.78797h-10.51926v-7.52366"/><path d="M244.2566,197.81452v-9.35877"/></g><path d="M241.67113,172.00469c0,-1.44668 1.17276,-2.61944 2.61945,-2.61944c1.44668,0 2.61944,1.17276 2.61944,2.61944c0,1.44668 -1.17276,2.61945 -2.61944,2.61945c-1.44668,0 -2.61945,-1.17276 -2.61945,-2.61945z" stroke-linecap="butt"/></g></g></g></svg>