<svg version="1.1" xmlns="http://www.w3.org/2000/svg" xmlns:xlink="http://www.w3.org/1999/xlink" width="52.23808" height="52.23808" viewBox="0,0,52.23808,52.23808"><defs><linearGradient x1="224.00997" y1="179.71584" x2="243.54701" y2="179.71584" gradientUnits="userSpaceOnUse" id="color-1"><stop offset="0" stop-color="#000000"/><stop offset="1" stop-color="#9b772c"/></linearGradient><linearGradient x1="255.0078" y1="189.39853" x2="247.43473" y2="193.37925" gradientUnits="userSpaceOnUse" id="color-2"><stop offset="0" stop-color="#5d5d5d"/><stop offset="1" stop-color="#808080"/></linearGradient><linearGradient x1="247.21251" y1="166.62075" x2="254.78558" y2="170.60147" gradientUnits="userSpaceOnUse" id="color-3"><stop offset="0" stop-color="#5d5d5d"/><stop offset="1" stop-color="#808080"/></linearGradient><linearGradient x1="238.0546" y1="179.94445" x2="247.16571" y2="179.94445" gradientUnits="userSpaceOnUse" id="color-4"><stop offset="0" stop-color="#5d5d5d"/><stop offset="1" stop-color="#808080"/></linearGradient></defs><g transform="translate(-213.88096,-153.88099)"><g data-paper-data="{&quot;isPaintingLayer&quot;:true}" fill-rule="nonzero" stroke="#000000" stroke-linecap="butt" stroke-linejoin="miter" stroke-miterlimit="10" stroke-dasharray="" stroke-dashoffset="0" style="mix-blend-mode: normal"><path d="M214.88097,180.00003c0,-13.87287 11.24618,-25.11904 25.11904,-25.11904c13.87287,0 25.11904,11.24618 25.11904,25.11904c0,13.87287 -11.24618,25.11904 -25.11904,25.11904c-13.87287,0 -25.11904,-11.24618 -25.11904,-25.11904z" fill="#ffffff" stroke-width="2"/><path d="M243.54701,179.71584c0,5.39501 -4.37352,9.76852 -9.76852,9.76852c-5.39501,0 -9.76852,-4.37352 -9.76852,-9.76852c0,-5.39501 4.37352,-9.76852 9.76852,-9.76852c5.39501,0 9.76852,4.37352 9.76852,9.76852z" fill="url(#color-1)" stroke-width="2.5"/><path d="M248.41698,195.24793l-1.96451,-3.73736l7.57307,-3.98072l1.96451,3.73736z" data-paper-data="{&quot;index&quot;:null}" fill="url(#color-2)" stroke-width="1.5"/><path d="M246.23025,168.48943l1.96451,-3.73736l7.57307,3.98072l-1.96451,3.73736z" fill="url(#color-3)" stroke-width="1.5"/><path d="M238.0546,194.94445v-30h9.11111v30z" fill="url(#color-4)" stroke-width="2.5"/></g></g></svg>