<svg version="1.1" xmlns="http://www.w3.org/2000/svg" xmlns:xlink="http://www.w3.org/1999/xlink" width="221.1497" height="41.03603" viewBox="0,0,221.1497,41.03603"><defs><linearGradient x1="333.94624" y1="180.44119" x2="369.98227" y2="180.44119" gradientUnits="userSpaceOnUse" id="color-1"><stop offset="0" stop-color="#ffffff"/><stop offset="1" stop-color="#dfdfdf"/></linearGradient></defs><g transform="translate(-151.33257,-159.92317)"><g data-paper-data="{&quot;isPaintingLayer&quot;:true}" fill-rule="nonzero" stroke-linejoin="miter" stroke-miterlimit="10" stroke-dasharray="" stroke-dashoffset="0" style="mix-blend-mode: normal"><path d="M153.83257,193.91818v-28h172.33333v28z" fill="none" stroke="#000000" stroke-width="5" stroke-linecap="butt"/><path d="M154.30076,194.1v-28.2h17v28.2z" fill="none" stroke="#000000" stroke-width="5" stroke-linecap="butt"/><path d="M171.50076,194.1v-28.2h17v28.2z" fill="none" stroke="#000000" stroke-width="5" stroke-linecap="butt"/><path d="M188.50076,194.1v-28.2h17v28.2z" fill="none" stroke="#000000" stroke-width="5" stroke-linecap="butt"/><path d="M205.70076,194.1v-28.2h17v28.2z" fill="none" stroke="#000000" stroke-width="5" stroke-linecap="butt"/><path d="M223.10076,194.1v-28.2h17v28.2z" fill="none" stroke="#000000" stroke-width="5" stroke-linecap="butt"/><path d="M240.30076,194.1v-28.2h17v28.2z" fill="#fff500" stroke="#000000" stroke-width="5" stroke-linecap="butt"/><path d="M257.30076,194.1v-28.2h17v28.2z" fill="#ff5200" stroke="#000000" stroke-width="5" stroke-linecap="butt"/><path d="M274.50076,194.1v-28.2h17v28.2z" fill="#ff0000" stroke="#000000" stroke-width="5" stroke-linecap="butt"/><path d="M291.96743,194.1v-28.2h17v28.2z" fill="#474747" stroke="#000000" stroke-width="5" stroke-linecap="butt"/><path d="M309.16743,194.1v-28.2h17v28.2z" fill="#000000" stroke="#000000" stroke-width="5" stroke-linecap="butt"/><path d="M333.94624,180.44118c0,-9.95108 8.06694,-18.01801 18.01801,-18.01801c9.95108,0 18.01802,8.06694 18.01802,18.01801c0,9.95108 -8.06695,18.01802 -18.01802,18.01802c-9.95108,0 -18.01801,-8.06695 -18.01801,-18.01802z" fill="url(#color-1)" stroke="#fff500" stroke-width="5" stroke-linecap="butt"/><g fill="none" stroke="#fff500" stroke-width="2.5"><path d="M356.95427,184.66973c0,-1.7767 1.44029,-3.21701 3.217,-3.21701c1.7767,0 3.21701,1.4403 3.21701,3.21701c0,1.7767 -1.4403,3.217 -3.21701,3.217c-1.7767,0 -3.217,-1.4403 -3.217,-3.217z" stroke-linecap="butt"/><path d="M347.9598,176.33322h4.5038v15.65609" data-paper-data="{&quot;index&quot;:null}" stroke-linecap="round"/><path d="M356.63258,184.22473h-4.07488" stroke-linecap="round"/><path d="M341.28943,176.52217c0,-1.7767 1.44029,-3.21701 3.217,-3.21701c1.7767,0 3.21701,1.4403 3.21701,3.21701c0,1.7767 -1.4403,3.217 -3.21701,3.217c-1.7767,0 -3.217,-1.4403 -3.217,-3.217z" stroke-linecap="butt"/></g><path d="M352.46459,191.94947v4.66667" fill="none" stroke="#fff500" stroke-width="2.5" stroke-linecap="round"/></g></g></svg>