<svg version="1.1" xmlns="http://www.w3.org/2000/svg" xmlns:xlink="http://www.w3.org/1999/xlink" width="38.5" height="38.5" viewBox="0,0,38.5,38.5"><defs><linearGradient x1="240.17091" y1="172.92978" x2="240.17091" y2="180.69072" gradientUnits="userSpaceOnUse" id="color-1"><stop offset="0" stop-color="#cacaca"/><stop offset="1" stop-color="#6b6b6b"/></linearGradient><linearGradient x1="239.85077" y1="178.12964" x2="239.85077" y2="190.36804" gradientUnits="userSpaceOnUse" id="color-2"><stop offset="0" stop-color="#cacaca"/><stop offset="1" stop-color="#6b6b6b"/></linearGradient></defs><g transform="translate(-220.75,-160.75)"><g data-paper-data="{&quot;isPaintingLayer&quot;:true}" fill-rule="nonzero" stroke="#000000" stroke-linecap="butt" stroke-linejoin="miter" stroke-miterlimit="10" stroke-dasharray="" stroke-dashoffset="0" style="mix-blend-mode: normal"><path d="M222,180c0,-9.94113 8.05887,-18 18,-18c9.94113,0 18,8.05887 18,18c0,9.94113 -8.05887,18 -18,18c-9.94113,0 -18,-8.05887 -18,-18z" fill="#ffffff" stroke-width="2.5"/><path d="M250.02132,176.81025c0,2.14313 -4.41018,3.88047 -9.85043,3.88047c-5.44023,0 -9.85043,-1.73735 -9.85043,-3.88047c0,-2.14313 4.41018,-3.88047 9.85043,-3.88047c5.44023,0 9.85043,1.73735 9.85043,3.88047z" fill="url(#color-1)" stroke-width="1.5"/><path d="M234.2986,181.38603l-3.99278,-13.13755l4.85518,-1.4756l3.99278,13.13755z" fill="#00cbcb" stroke-width="1.5"/><path d="M238.79273,180.41924l5.06778,-12.76147l4.7162,1.87287l-5.06778,12.76147z" fill="#ffc200" stroke-width="1.5"/><path d="M237.1895,181.21426l0.15537,-13.73002l5.07415,0.05742l-0.15537,13.73002z" fill="#ff0000" stroke-width="1.5"/><path d="M230.14958,190.36804v-12.23842c0,0 1.36192,1.5726 3.64135,2.15592c1.72477,0.44138 4.23005,-0.06643 5.61207,-0.06643c1.3868,0 3.4317,0.51695 5.32322,0.08212c2.55248,-0.58678 4.82572,-2.1716 4.82572,-2.1716v12.23842c0,0 -1.5131,1.6066 -3.72228,2.2971c-2.08477,0.65162 -4.82208,0.38938 -6.42665,0.38938c-1.29507,0 -3.68263,0.44303 -5.34388,-0.09052c-2.38673,-0.76655 -3.90955,-2.59597 -3.90955,-2.59597z" fill="url(#color-2)" stroke-width="1.5"/><text transform="translate(234.58302,191.00235) scale(0.22388,0.22388)" font-size="40" xml:space="preserve" fill="#000000" fill-rule="nonzero" stroke="#000000" stroke-width="1" stroke-linecap="butt" stroke-linejoin="miter" stroke-miterlimit="10" stroke-dasharray="" stroke-dashoffset="0" font-family="Sans Serif" font-weight="normal" text-anchor="start" style="mix-blend-mode: normal"><tspan x="0" dy="0">1k</tspan></text></g></g></svg>