<svg version="1.1" xmlns="http://www.w3.org/2000/svg" xmlns:xlink="http://www.w3.org/1999/xlink" width="289.11315" height="91.26291" viewBox="0,0,289.11315,91.26291"><defs><linearGradient x1="331.64983" y1="179.9947" x2="381.64983" y2="179.9947" gradientUnits="userSpaceOnUse" id="color-1"><stop offset="0" stop-color="#b2b2b2"/><stop offset="1" stop-color="#8b8b8b"/></linearGradient><linearGradient x1="147.53668" y1="180.25761" x2="97.53668" y2="180.25761" gradientUnits="userSpaceOnUse" id="color-2"><stop offset="0" stop-color="#b2b2b2"/><stop offset="1" stop-color="#8b8b8b"/></linearGradient><linearGradient x1="108.8486" y1="179.42098" x2="136.06324" y2="179.42098" gradientUnits="userSpaceOnUse" id="color-3"><stop offset="0" stop-color="#ffffff"/><stop offset="1" stop-color="#dfdfdf"/></linearGradient><linearGradient x1="149.09151" y1="180.00001" x2="330.9085" y2="180.00001" gradientUnits="userSpaceOnUse" id="color-4"><stop offset="0" stop-color="#ecfcff" stop-opacity="0"/><stop offset="1" stop-color="#ecfcff"/></linearGradient><linearGradient x1="330.9085" y1="180.00001" x2="149.09151" y2="180.00001" gradientUnits="userSpaceOnUse" id="color-5"><stop offset="0" stop-color="#ecfcff" stop-opacity="0"/><stop offset="1" stop-color="#ecfcff"/></linearGradient></defs><g transform="translate(-95.03667,-134.49469)"><g data-paper-data="{&quot;isPaintingLayer&quot;:true}" fill-rule="nonzero" stroke="#000000" stroke-linejoin="miter" stroke-miterlimit="10" stroke-dasharray="" stroke-dashoffset="0" style="mix-blend-mode: normal"><path d="M147.5,206.50001v-53h185v53z" fill="none" stroke-width="5" stroke-linecap="butt"/><path d="M331.64983,222.9947v-86h50v86z" fill="url(#color-1)" stroke-width="5" stroke-linecap="butt"/><path d="M97.53668,223.25761v-86h50v86z" data-paper-data="{&quot;index&quot;:null}" fill="url(#color-2)" stroke-width="5" stroke-linecap="butt"/><g stroke-width="2.5"><path d="M108.8486,179.42098c0,-7.51512 6.09221,-13.60732 13.60732,-13.60732c7.51512,0 13.60732,6.09221 13.60732,13.60732c0,7.51512 -6.09221,13.60732 -13.60732,13.60732c-7.51512,0 -13.60732,-6.09221 -13.60732,-13.60732z" fill="url(#color-3)" stroke-linecap="butt"/><g fill="none"><path d="M118.32492,176.75723c0,-2.39844 1.94432,-4.34276 4.34276,-4.34276c2.39844,0 4.34276,1.94432 4.34276,4.34276c0,2.39844 -1.94432,4.34276 -4.34276,4.34276c-2.39844,0 -4.34276,-1.94432 -4.34276,-4.34276z" stroke-linecap="butt"/><path d="M122.9572,181.09999v11.00166" stroke-linecap="round"/></g></g><path d="M149.09151,223.71715v-87.43428h181.81697v87.43428z" fill="url(#color-4)" stroke-width="3.5" stroke-linecap="butt"/><path d="M149.09151,223.71715v-87.43428h181.81697v87.43428z" data-paper-data="{&quot;index&quot;:null}" fill="url(#color-5)" stroke-width="3.5" stroke-linecap="butt"/></g></g></svg>