<svg version="1.1" xmlns="http://www.w3.org/2000/svg" xmlns:xlink="http://www.w3.org/1999/xlink" width="29.75" height="28.75" viewBox="0,0,29.75,28.75"><defs><radialGradient cx="240" cy="180" r="8.53408" gradientUnits="userSpaceOnUse" id="color-1"><stop offset="0" stop-color="#ff0000"/><stop offset="1" stop-color="#ff0000" stop-opacity="0"/></radialGradient></defs><g transform="translate(-222.36222,-162.69224)"><g data-paper-data="{&quot;isPaintingLayer&quot;:true}" fill-rule="nonzero" stroke-linejoin="miter" stroke-miterlimit="10" stroke-dasharray="" stroke-dashoffset="0" style="mix-blend-mode: normal"><path d="M231.46592,180c0,-4.71325 3.82084,-8.53408 8.53408,-8.53408c4.71325,0 8.53408,3.82084 8.53408,8.53408c0,4.71325 -3.82084,8.53408 -8.53408,8.53408c-4.71325,0 -8.53408,-3.82084 -8.53408,-8.53408z" fill="url(#color-1)" stroke="none" stroke-width="0.5" stroke-linecap="butt"/><path d="M223.36222,174.06724l4,4.5l7.5,-2.75l5,3.75l1.125,-8.25l-4.875,-3.125l2.25,-4.5" fill="none" stroke="#ff0000" stroke-width="2" stroke-linecap="round"/><path d="M246.36222,190.44224l-2.5,-2.25l3.25,-3.75l-6.75,-4.625l-4.375,3.625l2.25,2.875l-4.25,0.125l1,3.75" fill="none" stroke="#ff0000" stroke-width="2" stroke-linecap="round"/><path d="M239.86222,179.94224l4.75,-4l4,-1l2.5,-5.875" fill="none" stroke="#ff0000" stroke-width="2" stroke-linecap="round"/></g></g></svg>