<svg version="1.1" xmlns="http://www.w3.org/2000/svg" xmlns:xlink="http://www.w3.org/1999/xlink" width="41.03603" height="41.03603" viewBox="0,0,41.03603,41.03603"><defs><linearGradient x1="221.98203" y1="180.00002" x2="258.01806" y2="180.00002" gradientUnits="userSpaceOnUse" id="color-1"><stop offset="0" stop-color="#ffffff"/><stop offset="1" stop-color="#dfdfdf"/></linearGradient><linearGradient x1="240.00004" y1="173.75542" x2="240.00004" y2="180.1847" gradientUnits="userSpaceOnUse" id="color-2"><stop offset="0" stop-color="#cacaca"/><stop offset="1" stop-color="#6b6b6b"/></linearGradient><linearGradient x1="240.06266" y1="178.45057" x2="240.06266" y2="188.58906" gradientUnits="userSpaceOnUse" id="color-3"><stop offset="0" stop-color="#cacaca"/><stop offset="1" stop-color="#6b6b6b"/></linearGradient></defs><g transform="translate(-219.48203,-159.482)"><g data-paper-data="{&quot;isPaintingLayer&quot;:true}" fill-rule="nonzero" stroke-linecap="butt" stroke-linejoin="miter" stroke-miterlimit="10" stroke-dasharray="" stroke-dashoffset="0" style="mix-blend-mode: normal"><path d="M221.98203,180.00001c0,-9.95108 8.06694,-18.01801 18.01801,-18.01801c9.95108,0 18.01802,8.06694 18.01802,18.01801c0,9.95108 -8.06695,18.01802 -18.01802,18.01802c-9.95108,0 -18.01801,-8.06695 -18.01801,-18.01802z" fill="url(#color-1)" stroke="#000000" stroke-width="5"/><path d="M248.16029,176.97006c0,1.77541 -3.65347,3.21464 -8.16026,3.21464c-4.50678,0 -8.16026,-1.43925 -8.16026,-3.21464c0,-1.77541 3.65347,-3.21464 8.16026,-3.21464c4.50678,0 8.16026,1.43925 8.16026,3.21464z" fill="url(#color-2)" stroke="#000000" stroke-width="1"/><path d="M235.46315,181.14821l-3.30769,-10.88336l4.02211,-1.22241l3.30769,10.88336z" fill="#00cbcb" stroke="#000000" stroke-width="1"/><path d="M239.18617,180.34731l4.19823,-10.57181l3.90698,1.55151l-4.19823,10.57181z" fill="#ffc200" stroke="#000000" stroke-width="1"/><path d="M237.85802,181.00591l0.12871,-11.37417l4.20351,0.04756l-0.12871,11.37417z" fill="#ff0000" stroke="#000000" stroke-width="1"/><path d="M232.02604,188.58906v-10.1385c0,0 1.12823,1.30277 3.01655,1.786c1.42882,0.36565 3.50424,-0.05503 4.64913,-0.05503c1.14885,0 2.84288,0.42825 4.40984,0.06803c2.11452,-0.4861 3.9977,-1.79899 3.9977,-1.79899v10.1385c0,0 -1.25348,1.33093 -3.0836,1.90296c-1.72705,0.53981 -3.99469,0.32257 -5.32394,0.32257c-1.07285,0 -3.05075,0.36702 -4.42696,-0.07499c-1.97721,-0.63502 -3.23874,-2.15054 -3.23874,-2.15054z" fill="url(#color-3)" stroke="#000000" stroke-width="1"/><text transform="translate(231.65842,184.37496) scale(0.36458,0.36458)" font-size="40" xml:space="preserve" fill="#ffffff" fill-rule="nonzero" stroke="#ffffff" stroke-width="3" stroke-linecap="butt" stroke-linejoin="miter" stroke-miterlimit="10" stroke-dasharray="" stroke-dashoffset="0" font-family="Sans Serif" font-weight="normal" text-anchor="start" style="mix-blend-mode: normal"><tspan x="0" dy="0">25</tspan></text></g></g></svg>