<svg version="1.1" xmlns="http://www.w3.org/2000/svg" xmlns:xlink="http://www.w3.org/1999/xlink" width="32.29795" height="30.85559" viewBox="0,0,32.29795,30.85559"><defs><linearGradient x1="230.2315" y1="180" x2="249.76854" y2="180" gradientUnits="userSpaceOnUse" id="color-1"><stop offset="0" stop-color="#000000"/><stop offset="1" stop-color="#635c00"/></linearGradient><linearGradient x1="249.9556" y1="179.86367" x2="254.33288" y2="179.86367" gradientUnits="userSpaceOnUse" id="color-2"><stop offset="0" stop-color="#5d5d5d"/><stop offset="1" stop-color="#808080"/></linearGradient><linearGradient x1="229.16223" y1="180.09423" x2="224.53494" y2="180.09423" gradientUnits="userSpaceOnUse" id="color-3"><stop offset="0" stop-color="#5d5d5d"/><stop offset="1" stop-color="#808080"/></linearGradient><linearGradient x1="240.26247" y1="189.76363" x2="240.26247" y2="194.14092" gradientUnits="userSpaceOnUse" id="color-4"><stop offset="0" stop-color="#5d5d5d"/><stop offset="1" stop-color="#808080"/></linearGradient><linearGradient x1="240.01609" y1="170.16262" x2="240.01609" y2="165.78533" gradientUnits="userSpaceOnUse" id="color-5"><stop offset="0" stop-color="#5d5d5d"/><stop offset="1" stop-color="#808080"/></linearGradient></defs><g transform="translate(-223.28494,-164.53533)"><g data-paper-data="{&quot;isPaintingLayer&quot;:true}" fill-rule="nonzero" stroke="#000000" stroke-width="2.5" stroke-linecap="butt" stroke-linejoin="miter" stroke-miterlimit="10" stroke-dasharray="" stroke-dashoffset="0" style="mix-blend-mode: normal"><path d="M249.76854,180c0,5.39501 -4.37352,9.76852 -9.76852,9.76852c-5.39501,0 -9.76852,-4.37352 -9.76852,-9.76852c0,-5.39501 4.37352,-9.76852 9.76852,-9.76852c5.39501,0 9.76852,4.37352 9.76852,9.76852z" fill="url(#color-1)"/><path d="M249.9556,183.24508v-6.76282h4.37729v6.76282z" fill="url(#color-2)"/><path d="M224.53494,183.47564v-6.76282h4.62729v6.76282z" data-paper-data="{&quot;index&quot;:null}" fill="url(#color-3)"/><path d="M236.88106,189.76363h6.76282v4.37729h-6.76282z" fill="url(#color-4)"/><path d="M243.3975,170.16262h-6.76282v-4.37729h6.76282z" data-paper-data="{&quot;index&quot;:null}" fill="url(#color-5)"/></g></g></svg>